<?xml version="1.0" standalone="no"?>
<!DOCTYPE svg PUBLIC "-//W3C//DTD SVG 20010904//EN"
 "http://www.w3.org/TR/2001/REC-SVG-20010904/DTD/svg10.dtd">
<svg version="1.0" xmlns="http://www.w3.org/2000/svg"
 width="700.000000pt" height="700.000000pt" viewBox="0 0 700.000000 700.000000"
 preserveAspectRatio="xMidYMid meet">
<metadata>
Created by potrace 1.14, written by Peter Selinger 2001-2017
</metadata>
<g transform="translate(0.000000,700.000000) scale(0.100000,-0.100000)"
fill="#000000" stroke="none">
<path d="M0 3500 l0 -3500 3500 0 3500 0 0 3500 0 3500 -3500 0 -3500 0 0
-3500z m5475 2871 c156 -43 277 -103 415 -207 98 -74 294 -269 365 -362 34
-45 44 -52 73 -52 49 0 97 -33 121 -84 27 -54 26 -81 -1 -136 -25 -50 -89 -90
-142 -90 -43 0 -111 44 -130 84 -20 42 -21 102 -1 140 18 33 19 30 -62 128
-192 231 -424 399 -636 459 -117 33 -307 34 -422 1 -251 -72 -492 -255 -690
-526 l-20 -27 -55 30 c-171 93 -592 222 -997 305 -328 67 -636 107 -953 121
-458 22 -929 -100 -1235 -320 -191 -137 -309 -295 -359 -480 -57 -211 -9 -631
110 -985 127 -372 376 -756 654 -1009 63 -57 79 -67 94 -59 28 16 110 4 143
-20 91 -65 79 -218 -21 -266 -104 -49 -219 22 -221 137 l0 52 -125 125 c-69
69 -156 163 -193 210 -366 456 -575 1034 -578 1593 -1 176 21 279 85 412 54
111 123 202 213 284 274 249 692 408 1159 443 336 24 856 -30 1356 -143 317
-71 663 -176 823 -248 l64 -29 75 87 c199 233 480 404 740 451 78 14 270 4
351 -19z m-3390 -576 c101 -49 158 -142 159 -257 l1 -67 245 -107 c135 -59
250 -112 256 -118 6 -6 32 -159 58 -341 29 -196 53 -333 60 -337 6 -3 108 -70
225 -148 l214 -141 66 -2 c79 -2 110 -21 142 -85 37 -75 14 -148 -62 -200 -28
-19 -44 -23 -85 -20 -95 8 -151 75 -141 171 l4 49 -236 155 c-130 86 -238 157
-239 158 -2 2 -26 150 -52 330 -27 180 -50 328 -52 330 -5 5 -439 195 -445
195 -3 0 -22 -16 -41 -36 -72 -74 -197 -104 -302 -73 -59 18 -130 78 -164 139
-28 50 -31 63 -31 140 0 70 4 93 23 130 79 151 247 209 397 135z m1145 -697
c54 -37 75 -73 76 -129 l0 -50 290 -210 c264 -193 289 -213 292 -242 12 -124
66 -1027 61 -1027 -3 0 -221 83 -484 185 -264 102 -484 185 -490 185 -9 0
-110 -161 -522 -829 l-133 -214 0 -217 c0 -548 76 -954 240 -1280 111 -222
246 -365 420 -449 72 -35 79 -36 185 -36 130 1 185 19 280 90 249 187 377 598
336 1080 -7 77 -14 149 -17 160 -3 15 8 28 48 55 29 19 95 72 148 117 372 320
672 857 828 1479 65 260 96 468 108 739 l7 151 -40 16 c-22 8 -52 32 -69 53
-76 100 -1 245 126 245 132 0 198 -155 110 -255 -15 -17 -18 -49 -23 -230 -19
-695 -267 -1432 -658 -1951 -97 -128 -276 -312 -383 -394 l-85 -65 7 -65 c14
-129 7 -449 -12 -555 -60 -332 -187 -557 -393 -695 -105 -70 -190 -95 -323
-94 -82 0 -120 6 -170 23 -360 125 -620 533 -730 1145 -37 204 -52 392 -55
681 l-3 280 -141 298 c-81 170 -138 303 -134 310 4 7 37 52 73 102 65 89 65
90 65 155 0 57 4 72 27 102 34 45 102 73 152 64 69 -13 126 -82 126 -153 0
-90 -65 -153 -159 -153 l-57 0 -51 -69 -51 -69 107 -226 c60 -125 110 -229
113 -232 6 -6 588 929 588 944 0 19 -183 143 -199 136 -9 -4 -38 -9 -66 -11
-41 -4 -56 0 -84 19 -56 38 -75 72 -75 132 0 120 121 193 225 134 50 -28 70
-59 78 -122 l6 -50 108 -80 109 -79 431 -168 c238 -91 433 -166 434 -165 1 1
-9 170 -22 376 -14 206 -25 391 -25 411 0 35 -4 38 -266 229 -147 106 -272
193 -278 193 -6 1 -28 -2 -48 -7 -51 -11 -100 7 -142 54 -48 53 -55 97 -25
157 44 89 137 120 209 71z"/>
<path d="M6257 5679 c-21 -12 -47 -61 -47 -89 0 -35 27 -77 60 -90 39 -16 102
0 125 33 44 63 -5 157 -82 157 -21 0 -46 -5 -56 -11z"/>
<path d="M1614 3244 c-85 -42 -65 -172 29 -187 110 -17 163 130 67 186 -35 21
-56 21 -96 1z"/>
<path d="M1868 5690 c-71 -38 -108 -124 -87 -203 17 -62 82 -123 141 -132 115
-17 208 63 208 180 0 53 -16 88 -57 127 -54 51 -138 63 -205 28z"/>
<path d="M3334 4220 c-30 -12 -64 -58 -64 -87 0 -32 26 -80 49 -93 39 -20 91
-12 122 19 48 49 38 125 -21 156 -32 17 -54 18 -86 5z"/>
<path d="M3085 5037 c-39 -39 -44 -70 -20 -116 29 -58 124 -66 165 -14 48 62
12 149 -67 160 -39 5 -46 2 -78 -30z"/>
<path d="M4849 4881 c-60 -60 -26 -161 55 -161 55 0 86 16 102 55 18 45 10 78
-28 110 -42 35 -91 34 -129 -4z"/>
<path d="M2546 4235 c-41 -22 -55 -44 -56 -88 0 -49 13 -73 50 -92 46 -24 78
-19 116 19 44 44 47 92 7 136 -34 37 -78 46 -117 25z"/>
<path d="M2174 3760 c-51 -20 -71 -103 -36 -146 78 -97 222 -12 170 101 -21
46 -82 66 -134 45z"/>
</g>
</svg>
