<?xml version="1.0" encoding="utf-8"?>
<!-- Generator: Adobe Illustrator 26.3.1, SVG Export Plug-In . SVG Version: 6.00 Build 0)  -->
<svg version="1.1" id="Layer_1" xmlns="http://www.w3.org/2000/svg" xmlns:xlink="http://www.w3.org/1999/xlink" x="0px" y="0px"
	 viewBox="0 0 186.6 105.1" style="enable-background:new 0 0 186.6 105.1;" xml:space="preserve">
<style type="text/css">
	.st0{fill:#FFFFFF;}
</style>
<g>
	<path class="st0" d="M65.3,0c1,0.2,2,0.4,2.9,0.7c4.3,1.3,7.1,4.4,9,8.3c1.8,3.6,2.7,7.4,3.3,11.4c0,0.2,0.1,0.4,0.2,0.8
		c0.8-1.7,1.5-3.3,2.2-4.8c1.9-4.2,3.8-8.4,5.6-12.6c0.2-0.4,0.4-0.6,0.9-0.6c9.4,0,18.7,0,28.1,0c0.2,0,0.3,0,0.6,0
		c-0.7,1.5-1.3,2.9-2,4.3c-7.3,15.5-14.5,30.9-21.8,46.3c-2.5,5.3-5.4,10.4-8.1,15.6c-0.1,0.3-0.3,0.6-0.3,0.9
		c0.1,4.1,0.6,8.1,2.4,11.8c2,4,5.5,5.9,9.9,5.5c2.1-0.2,4.1-0.7,5.8-2.1c1.9-1.6,2.7-3.7,3-6c0.1-0.9,0.2-1.8,0.3-2.8
		c1.7,0,3.3,0,4.9,0c0,2,0.1,4,0,5.9c-0.2,4.1-0.9,8.2-2.3,12.2c-0.9,2.5-2.2,4.9-4.1,6.8c-1.9,1.9-4.3,3-7,3.5
		c-0.2,0-0.4,0.1-0.6,0.2c-1.2,0-2.4,0-3.6,0c-0.1-0.1-0.3-0.1-0.4-0.2c-2.1-0.3-4.1-1.2-5.7-2.6c-2.5-2.1-4-4.9-5-7.9
		c-1.8-5.1-2.4-10.3-2.7-15.6c0-0.3-0.1-0.5-0.1-0.9c-0.3,0.4-0.4,0.6-0.6,0.8c-3.6,5.1-7.6,9.8-12.4,13.8c-8,6.7-17,10.9-27.4,12.1
		c-1.2,0.1-2.4,0.3-3.6,0.4c-2.1,0-4.2,0-6.4,0c-0.1,0-0.3-0.1-0.4-0.1c-7.6-0.7-14-3.9-19.1-9.5C4.9,89,2.3,81.2,1.9,72.6
		c-0.3-7.1,0.8-14,3-20.7c2.6-7.9,6.5-15.1,11.2-21.9C22.3,20.9,29.7,13,39.3,7.4c5.5-3.2,11.3-5.8,17.6-6.9
		c1.2-0.2,2.4-0.4,3.6-0.6C62.1,0,63.7,0,65.3,0z M26.1,79.7c0.1,1.6,0.1,3.2,0.2,4.7c0.2,2.6,0.7,5.2,1.9,7.7
		c1.3,2.6,3.2,4.4,6.2,4.7c2.4,0.3,4.5-0.5,6.4-1.8c2.6-1.8,4.6-4.2,6.4-6.7c4.3-6.2,7.7-12.9,11-19.6c5.9-12.1,11.7-24.3,17.5-36.4
		c0.2-0.4,0.3-0.8,0.3-1.2c-0.2-2.8-0.3-5.6-0.6-8.4c-0.3-2.7-1.1-5.3-2.4-7.6c-2-3.5-5-5.2-9.1-4.9c-2.6,0.2-4.9,1.2-7.1,2.6
		c-4,2.6-7,6.1-9.7,9.9c-7.1,10.1-12.5,21.1-16.5,32.8C27.8,63.3,26.2,71.4,26.1,79.7z"/>
	<path class="st0" d="M179.7,69.7c-1.4,2.9-5.4,4-8.2,2.3c-0.5-0.3-0.9-2.1-0.4-2.5c0.2-0.1,0.6,0,0.8,0.1c0.9,0.3,1.8,0.6,2.7,0.8
		c0.4,0.1,0.9-0.1,1.3-0.3c0.8-0.4,0.9-1.3,0.2-1.9c-0.3-0.3-0.8-0.4-1.1-0.6c-0.5-0.2-1.1-0.4-1.6-0.6c-1.8-0.8-2.6-2-2.4-3.9
		c0.2-1.5,1.3-2.6,3-3c1.4-0.4,2.9-0.3,4.3,0.3c0.7,0.3,1.2,1.9,0.7,2.5c-0.1,0.1-0.5,0.1-0.7,0.1c-0.7-0.2-1.4-0.5-2.1-0.7
		c-0.3-0.1-0.6,0-0.9,0c-0.6,0.1-1.1,0.3-1.2,1c-0.1,0.7,0.3,1,0.8,1.3c0.6,0.3,1.1,0.5,1.7,0.7c1.4,0.5,2.5,1.3,3.1,2.7
		C179.7,68.4,179.7,69,179.7,69.7z"/>
	<path class="st0" d="M119.2,71.3c0,1.6,0,3.2,0,4.7c0,0.8-0.3,1.1-1,1.1c-2.1,0.2-2.3,0.1-2.3-2.1c0-4.6,0-9.3,0-13.9
		c0-1,0.1-1,1-1.1c0.2,0,0.4,0,0.5,0c1.1,0,1.2,0.1,1.2,1.3c0,0.1,0,0.2,0,0.5c0.4-0.3,0.7-0.6,1-0.8c2.9-2.3,6.5-1.1,7.4,2.4
		c0.5,2,0.5,4.1-0.2,6c-1.1,3.4-4.5,4.4-7.3,2.2C119.6,71.5,119.5,71.4,119.2,71.3z M119.3,66.1c-0.2,1.3-0.1,2.3,1,3.2
		c1.3,1,2.7,0.8,3.4-0.8c0.7-1.5,0.6-3.1,0-4.7c-0.5-1.3-1.8-1.7-3-0.9C119.5,63.7,118.9,64.7,119.3,66.1z"/>
	<path class="st0" d="M133.3,61.3c0.5-0.3,0.9-0.6,1.3-0.9c2.9-1.7,6.1-0.1,6.3,3.2c0.2,2.7,0.1,5.4,0.1,8.2c0,0.5-0.2,0.7-0.6,0.7
		c-0.6,0-1.2,0-1.8,0c-0.6,0-0.9-0.3-0.9-0.9c0-2,0-4,0-6.1c0-0.6-0.1-1.2-0.3-1.8c-0.2-0.7-0.8-1-1.6-1c-1.2,0-2.5,1.3-2.5,2.5
		c0,2.1,0,4.2,0,6.4c0,0.6-0.3,0.9-0.8,0.9c-2.3,0.2-2.5,0.1-2.5-2.2c0-4.9,0-9.8,0-14.7c0-0.8,0.3-1.1,1-1.1c0.1,0,0.2,0,0.3,0
		c1.8-0.1,2,0.1,2,1.8C133.3,57.9,133.3,59.5,133.3,61.3z"/>
	<path class="st0" d="M165.5,70.8c-1.1,1-2.1,1.8-3.6,1.9c-2.5,0.2-4.3-1.2-4.4-3.6c-0.2-2.8-0.1-5.6-0.1-8.4c0-0.2,0.3-0.4,0.5-0.6
		c0.1-0.1,0.2,0,0.3,0c2.3-0.3,2.4-0.2,2.4,2.1c0,1.9,0,3.7,0.1,5.6c0,0.8,0.3,1.6,1.1,2c0.9,0.4,1.5,0,2.2-0.5
		c0.7-0.5,1.1-1.2,1.1-2.2c-0.1-2,0-4,0-6c0-0.8,0.3-1.1,1-1c0.1,0,0.1,0,0.2,0c2-0.2,2.2,0,2.2,2c0,3.2,0,6.4,0,9.6
		c0,0.7-0.2,1-0.9,1c0,0-0.1,0-0.1,0C165.6,72.6,165.6,72.6,165.5,70.8z"/>
	<path class="st0" d="M146.9,67.1c-0.2,1.8,0.7,2.9,2.3,3.1c1.3,0.2,2.6-0.1,3.9-0.5c0.9-0.3,1-0.2,1.1,0.7c0.1,1.4-0.1,1.6-1.4,1.9
		c-1.7,0.4-3.4,0.6-5.1,0.2c-2.2-0.4-3.5-1.8-4-4c-0.3-1.6-0.3-3.2,0.2-4.8c0.8-2.6,3-4.1,5.8-4c4.4,0.2,5.3,3.4,5.1,6.4
		c0,0.7-0.5,0.9-1.1,0.9c-2,0-3.9,0-5.9,0C147.5,67.1,147.2,67.1,146.9,67.1z M151.5,64.9c0.1-1.8-0.8-2.8-2.3-2.8
		c-1.4,0-2.4,1.3-2.3,2.8C148.5,64.9,150,64.9,151.5,64.9z"/>
	<path class="st0" d="M103.6,71.2c-1.5,1.4-3.2,1.7-5.1,1.2c-1.6-0.4-2.6-1.6-2.6-3.1c-0.1-2,0.6-3.2,2.4-3.7
		c1.1-0.3,2.2-0.4,3.3-0.5c0.5-0.1,0.9,0,1.4,0c0.5-1.7-0.2-2.9-1.9-2.8c-1.1,0.1-2.2,0.4-3.2,0.8c-1.1,0.4-1.3,0.3-1.4-0.9
		c-0.1-0.8,0.3-1.4,1-1.7c1.8-0.8,3.7-1,5.7-0.6c2,0.4,3,1.6,3.1,3.6c0.1,2.7,0,5.4,0,8.2c0,0.5-0.2,0.7-0.7,0.7c-0.3,0-0.5,0-0.8,0
		C103.7,72.5,103.7,72.5,103.6,71.2z M103,67c-1,0.1-2,0.2-2.9,0.4c-0.8,0.2-1.2,0.9-1,1.7c0.1,0.8,0.6,1.2,1.4,1.3
		C102.2,70.6,103.4,69.2,103,67z"/>
	<path class="st0" d="M112.8,63.5c0,2.7,0,5.3,0,8c0,0.7-0.2,1-0.9,1c-2.3,0.2-2.4,0.1-2.4-2.2c0-4.9,0-9.8,0-14.7
		c0-0.8,0.3-1.1,1-1.1c0.2,0,0.3,0,0.5,0c1.7-0.1,1.9,0.1,1.9,1.8C112.8,58.6,112.8,61,112.8,63.5z"/>
</g>
</svg>
