<svg xmlns="http://www.w3.org/2000/svg" viewBox="0 0 50 50"><defs><style>.cls-1{fill:#2677ed;stroke:#2677ed;stroke-miterlimit:10;stroke-width:0.5px;}</style></defs><g id="Calque_8" data-name="Calque 8"><path class="cls-1" d="M47.83,23.84H43.21A18.18,18.18,0,0,0,26.27,6.91V2.28a1.18,1.18,0,0,0-2.35,0V6.9h0A18.21,18.21,0,0,0,7,23.83H2.17a1.18,1.18,0,0,0,0,2.35H7A18.18,18.18,0,0,0,23.92,43.13v4.59a1.18,1.18,0,0,0,2.35,0V43.13h0A18.2,18.2,0,0,0,43.21,26.2h4.62a1.18,1.18,0,0,0,0-2.35ZM26.27,40.77V35a1.18,1.18,0,0,0-2.35,0v5.83A15.85,15.85,0,0,1,9.34,26.19h5.82a1.18,1.18,0,1,0,0-2.35H9.34A15.83,15.83,0,0,1,23.92,9.26v5.82a1.18,1.18,0,1,0,2.35,0V9.26A15.85,15.85,0,0,1,40.86,23.84H35a1.18,1.18,0,0,0,0,2.35h5.82A15.81,15.81,0,0,1,26.27,40.77Z"/><path class="cls-1" d="M23.93,23.85a1.65,1.65,0,1,0,2.34,0A1.65,1.65,0,0,0,23.93,23.85Z"/></g></svg>