<?xml version="1.0" encoding="utf-8"?>
<!-- Generator: Adobe Illustrator 26.0.3, SVG Export Plug-In . SVG Version: 6.00 Build 0)  -->
<svg version="1.1" id="Calque_1" xmlns="http://www.w3.org/2000/svg" xmlns:xlink="http://www.w3.org/1999/xlink" x="0px" y="0px"
	 viewBox="0 0 50 50" style="enable-background:new 0 0 50 50;" xml:space="preserve">
<style type="text/css">
	.st0{fill:#2677ED;}
</style>
<g id="Calque_9">
	<path class="st0" d="M25.1,6C14.6,5.9,6,14.5,6,25c0,10.5,8.5,19.1,19,19.1s19.1-8.5,19.1-19c0,0,0-0.1,0-0.1
		C44.1,14.5,35.6,6,25.1,6z M11.8,15.5c1.3-2.1,5.1-5.1,7.6-5.7c-1.2,1.8-2.2,3.8-2.8,5.8c-0.1,0.4-0.4,0.4-0.7,0.4h-3.8
		C11.8,16.1,11.5,16,11.8,15.5L11.8,15.5z M8.8,23.6c0.2-1.9,0.6-3.7,1.4-5.4c0.1-0.3,0.4-0.5,0.7-0.4h4.5c0.5,0,0.7,0.2,0.6,0.7
		c-0.3,1.7-0.5,3.4-0.6,5.2c0,0.5-0.2,0.7-0.7,0.7c-0.9,0-1.7,0-2.6,0s-1.7,0-2.6,0C8.9,24.2,8.8,24,8.8,23.6z M9.8,30.7
		c-0.5-1.3-0.8-2.7-0.9-4.1c0-0.5,0.1-0.7,0.7-0.7c1.7,0,3.5,0,5.2,0c0.5,0,0.7,0.2,0.7,0.7c0.1,1.8,0.3,3.5,0.6,5.2
		c0.1,0.5-0.1,0.7-0.6,0.7c-0.7,0-1.4,0-2.1,0h-1C10.4,32.5,10.4,32.5,9.8,30.7z M11.9,34.7c-0.3-0.4-0.2-0.6,0.3-0.6
		c1.3,0,2.6,0,3.8,0c0.3,0,0.6,0.1,0.7,0.4c0.6,2,1.5,3.9,2.6,5.6C16.3,39.1,13.8,37.2,11.9,34.7z M24.3,31.7c0,0.5-0.1,0.7-0.7,0.7
		c-1.7,0-3.4,0-5.1,0c-0.4,0-0.7-0.2-0.7-0.6c0,0,0,0,0-0.1c-0.4-1.7-0.6-3.5-0.7-5.2c0-0.6,0.2-0.8,0.8-0.8c1,0,1.9,0,2.9,0l0,0
		c0.9,0,1.9,0,2.8,0c0.5,0,0.7,0.2,0.7,0.7C24.2,28.3,24.3,30,24.3,31.7z M23.5,41.3c-0.5,0-1-0.2-1.4-0.6c-1.7-1.7-3-3.8-3.7-6.1
		c-0.1-0.4,0-0.6,0.4-0.6c1.6,0,3.1,0,4.7,0c0.5,0,0.6,0.2,0.6,0.7c0,1,0,2,0,3s0,1.9,0,2.9C24.3,41.2,24,41.4,23.5,41.3L23.5,41.3z
		 M23.5,24.2c-0.9,0-1.9,0-2.8,0s-1.9,0-2.8,0c-0.6,0-0.9-0.1-0.8-0.8c0.1-1.7,0.3-3.4,0.6-5.1c0-0.4,0.3-0.7,0.7-0.7
		c0,0,0.1,0,0.1,0c1.7,0,3.4,0,5,0c0.5,0,0.8,0.2,0.8,0.8c0,1.7,0,3.3,0,5C24.3,24.1,24,24.2,23.5,24.2L23.5,24.2z M24.3,9.9
		c0,0.9,0,1.7,0,2.5l0,0c0,1,0,1.9,0,2.9c0,0.6-0.2,0.7-0.8,0.7c-1.5,0-3,0-4.5,0c-0.5,0-0.7-0.2-0.5-0.7c0.6-2.1,1.7-4,3.2-5.6
		c0.3-0.3,0.5-0.5,0.9-0.8c0.4-0.3,1-0.4,1.5-0.2C24.5,9,24.2,9.6,24.3,9.9L24.3,9.9z M39.2,17.7c0.4,0,0.7,0.2,0.8,0.5
		c0.7,1.6,1.2,3.4,1.4,5.2c0.1,0.6-0.1,0.9-0.7,0.8c-0.9,0-1.7,0-2.6,0c-0.9,0-1.6,0-2.4,0c-0.6,0-0.8-0.2-0.9-0.8
		c-0.1-1.7-0.2-3.4-0.6-5c-0.1-0.5,0-0.7,0.6-0.7C36.2,17.7,37.7,17.7,39.2,17.7L39.2,17.7z M37.3,14.2c0.4,0.5,1.3,1.1,1.1,1.6
		c-0.2,0.5-1.2,0.2-1.9,0.2c-0.9,0-2,0.3-2.7-0.1c-0.7-0.5-0.6-1.6-1-2.4c-0.3-0.6-0.6-1.3-0.9-1.9c-0.3-0.6-0.7-1.2-1-1.7
		C33.4,10.8,35.6,12.2,37.3,14.2z M26.6,8.8c0.5,0,0.9,0.2,1.3,0.5c1.8,1.7,3.1,3.9,3.8,6.3c0.1,0.4-0.1,0.6-0.5,0.6
		c-1.6,0-3.1,0-4.7,0c-0.5,0-0.7-0.2-0.7-0.7c0-1,0-2,0-3s0-2,0-3C25.9,8.9,26.1,8.7,26.6,8.8z M25.9,18.5c0-0.5,0.2-0.8,0.7-0.8
		c1.7,0,3.4,0,5.1,0c0.4-0.1,0.7,0.2,0.7,0.6c0,0,0,0,0,0.1c0.4,1.7,0.6,3.4,0.6,5.2c0,0.6-0.2,0.8-0.7,0.7c-1,0-1.9,0-2.9,0
		s-1.9,0-2.8,0c-0.6,0-0.8-0.2-0.8-0.8C25.9,21.8,25.9,20.1,25.9,18.5z M26.7,25.9c1,0,1.9,0,2.9,0s1.9,0,2.8,0
		c0.5,0,0.8,0.2,0.8,0.7c-0.1,1.8-0.3,3.6-0.7,5.3c0,0.3-0.3,0.6-0.6,0.6c0,0,0,0-0.1,0h-5.2c-0.5,0-0.7-0.2-0.7-0.7
		c0-1.7,0-3.5,0-5.2C25.9,26,26.1,25.8,26.7,25.9z M27.5,41.2c-1.1,0.5-1.6,0.3-1.6-1c0-0.8,0-1.6,0-2.4l0,0c0-1,0-1.9,0-2.9
		c0-0.5,0.2-0.7,0.7-0.7c1.5,0,3.1,0,4.6,0c0.4,0,0.6,0.2,0.5,0.6c-0.6,2.2-1.8,4.1-3.4,5.8C28.1,40.8,27.8,41,27.5,41.2L27.5,41.2z
		 M38.2,34.8c-1.7,2.3-4.1,4.2-6.7,5.3c-0.1,0.1-0.3,0.1-0.4,0c0-0.4,0.3-0.7,0.5-1c0.8-1.3,1.4-2.7,1.8-4.2c0.1-0.5,0.5-0.8,1-0.7
		c1.2,0,2.3,0,3.5,0C38.4,34.1,38.6,34.3,38.2,34.8L38.2,34.8z M39.9,32.1c-0.1,0.3-0.4,0.5-0.7,0.4c-1.5,0-2.9,0-4.3,0
		c-0.5,0-0.7-0.2-0.6-0.7c0.4-1.8,0.6-3.5,0.6-5.3c0-0.5,0.3-0.6,0.7-0.6c0.9,0,1.7,0,2.6,0c0.9,0,1.6,0,2.4,0
		c0.6,0,0.9,0.2,0.8,0.8C41.2,28.5,40.6,30.3,39.9,32.1L39.9,32.1z"/>
</g>
</svg>
