<svg xmlns="http://www.w3.org/2000/svg" viewBox="0 0 50 50"><defs><style>.cls-1{fill:#2677ed;}</style></defs><g id="Calque_9" data-name="Calque 9"><path class="cls-1" d="M25.12,3.09A21.94,21.94,0,1,0,47,25,22,22,0,0,0,25.12,3.09Zm-15.33,11c1.46-2.46,5.88-5.85,8.8-6.57a23.47,23.47,0,0,0-3.2,6.72c-.13.44-.46.5-.84.5H10.22C9.75,14.72,9.43,14.68,9.79,14.07ZM6.36,23.34A18.39,18.39,0,0,1,8,17.12a.77.77,0,0,1,.77-.5H14c.58,0,.76.26.65.8a38.07,38.07,0,0,0-.69,5.93c0,.54-.25.76-.79.75-1,0-2,0-3,0s-2,0-3,0C6.51,24.12,6.32,23.88,6.36,23.34Zm1.08,8.2a18.48,18.48,0,0,1-1.08-4.76c0-.6.16-.84.76-.83,2,0,4,0,6,0,.58,0,.81.22.84.8a38,38,0,0,0,.72,6c.13.61-.09.83-.71.81-.81,0-1.63,0-2.45,0H10.32C8.19,33.58,8.19,33.58,7.44,31.54Zm2.49,4.61c-.32-.43-.2-.66.33-.66,1.47,0,2.94,0,4.41,0a.69.69,0,0,1,.76.48,28.19,28.19,0,0,0,2.95,6.5A17.73,17.73,0,0,1,9.93,36.15Zm14.21-3.4c0,.56-.16.84-.78.84-2,0-3.92,0-5.89,0a.76.76,0,0,1-.86-.71,36,36,0,0,1-.78-6c0-.71.26-.93.92-.92,1.11,0,2.22,0,3.34,0h0c1.08,0,2.16,0,3.24,0,.57,0,.82.22.81.81C24.12,28.76,24.13,30.76,24.14,32.75Zm-.83,11a2.77,2.77,0,0,1-1.6-.65,16,16,0,0,1-4.21-7c-.17-.49.05-.67.51-.67q2.7,0,5.4,0c.55,0,.74.28.73.8,0,1.14,0,2.29,0,3.43s0,2.22,0,3.33C24.16,43.67,23.89,43.84,23.31,43.77Zm-.06-19.66c-1.08,0-2.16,0-3.24,0s-2.17,0-3.25,0c-.64,0-1-.17-.93-.89a37,37,0,0,1,.73-5.84.8.8,0,0,1,.92-.77c1.94,0,3.87,0,5.8,0,.63,0,.87.23.87.87q0,2.89,0,5.79C24.16,23.94,23.85,24.12,23.25,24.11Zm.88-16.43c0,1,0,1.9,0,2.85h0c0,1.11,0,2.22,0,3.34,0,.64-.26.86-.88.85-1.73,0-3.47,0-5.21,0-.58,0-.77-.2-.58-.77A17.07,17.07,0,0,1,21.12,7.5a5.45,5.45,0,0,1,1-.88,1.86,1.86,0,0,1,1.69-.27C24.4,6.57,24.11,7.22,24.13,7.68Zm17.16,8.93a.9.9,0,0,1,.91.6,19,19,0,0,1,1.61,6c.07.67-.16,1-.86.94-1,0-2,0-3,0s-1.84,0-2.76,0c-.64,0-.94-.18-1-.88a33.9,33.9,0,0,0-.67-5.76c-.12-.58,0-.86.68-.86Q38.79,16.64,41.29,16.61Zm-2.11-4c.51.58,1.49,1.28,1.24,1.86s-1.42.24-2.17.25c-1,0-2.26.38-3.09-.14s-.73-1.82-1.18-2.73c-.35-.7-.64-1.44-1-2.13s-.79-1.35-1.19-2A16.13,16.13,0,0,1,39.18,12.59Zm-12.3-6.3a2.84,2.84,0,0,1,1.54.56,15.91,15.91,0,0,1,4.35,7.22c.16.49-.08.65-.53.65-1.8,0-3.6,0-5.4,0-.6,0-.81-.27-.8-.83,0-1.15,0-2.29,0-3.44s0-2.29,0-3.43C26,6.41,26.29,6.2,26.88,6.29ZM26,17.49c0-.61.22-.89.86-.88q2.94,0,5.88,0a.76.76,0,0,1,.87.71,37,37,0,0,1,.74,5.93c0,.65-.25.87-.86.86-1.12,0-2.23,0-3.34,0s-2.16,0-3.24,0c-.68,0-.93-.26-.92-.93C26.06,21.29,26.05,19.39,26,17.49ZM26.92,26c1.11,0,2.23,0,3.34,0s2.16,0,3.25,0c.59,0,.9.18.88.85a35.1,35.1,0,0,1-.79,6.13.7.7,0,0,1-.8.65h-6c-.56,0-.76-.24-.76-.77,0-2,0-4,0-6C26,26.18,26.3,25.94,26.92,26Zm1,17.59c-1.3.63-1.85.29-1.85-1.13,0-.92,0-1.84,0-2.75h0c0-1.12,0-2.23,0-3.34,0-.57.22-.84.81-.84q2.66,0,5.31,0c.51,0,.73.18.54.72a16.34,16.34,0,0,1-3.87,6.63A3.81,3.81,0,0,1,27.89,43.54Zm12.32-7.33a18.84,18.84,0,0,1-7.76,6.12.41.41,0,0,1-.48,0c0-.48.36-.8.58-1.17a22.87,22.87,0,0,0,2.12-4.84,1,1,0,0,1,1.12-.83c1.34,0,2.68,0,4,0C40.41,35.48,40.63,35.66,40.21,36.21Zm1.87-3.13a.82.82,0,0,1-.86.5c-1.67,0-3.34,0-5,0-.59,0-.76-.23-.64-.78a39.58,39.58,0,0,0,.73-6.14c0-.57.32-.72.82-.72,1,0,2,0,3,0s1.83,0,2.75,0c.66,0,1,.2.9.92A18.8,18.8,0,0,1,42.08,33.08Z"/></g></svg>