<?xml version="1.0" encoding="utf-8"?>
<!-- Generator: Adobe Illustrator 26.3.1, SVG Export Plug-In . SVG Version: 6.00 Build 0)  -->
<svg version="1.1" id="Calque_1" xmlns="http://www.w3.org/2000/svg" xmlns:xlink="http://www.w3.org/1999/xlink" x="0px" y="0px"
	 viewBox="0 0 50 50" style="enable-background:new 0 0 50 50;" xml:space="preserve">
<style type="text/css">
	.st0{display:none;}
	.st1{display:inline;fill:#3E75E5;}
	.st2{fill:#3E75E5;}
	.st3{display:none;fill:#3E75E5;}
</style>
<g class="st0">
	<path class="st1" d="M19.8,15.6c0.3-1.3,0.2-1.7-0.8-2.5c-0.5-0.4-0.9-1-1.2-1.6c-0.1-0.2,0.1-0.4,0.2-0.7c0.1-0.1,0.2-0.2,0.3-0.1
		c0.2,0.1,0.5,0.2,0.6,0.3c0.2,0.2,0.3,0.4,0.5,0.6c0.1,0.2,0.4,0.1,0.4-0.1c0.1-0.7,0-1.4-0.4-2c-0.3-0.4-0.5-0.8,0-1.1
		c0.5-0.3,0.9,0,1.1,0.5c0.7,1.1,0.7,2.2,0.6,3.4c-0.1,1.4-0.3,2.9-0.1,4.3c0.1,0.8,0.7,1.5,1.2,2.3c0.1,0.2,0.4,0.1,0.4-0.1
		c0.3-1.2,0.1-2.2,0-3.2c-0.1-0.5-0.2-1-0.3-1.4c-0.1-0.4-0.2-0.9,0.4-1.1c0.6-0.1,0.8,0.3,0.8,0.7c0.4,2.2,0.9,4.3-0.1,6.5
		c-0.1,0.2,0,0.4,0.1,0.6c0.2,0.4,0.3,0.7,0.6,1.1c0.1,0.2,0.4,0.2,0.4-0.1c0.1-0.5,0.2-1,0.3-1.4c0.2-1.4,0.3-2.8,0.5-4.2
		c0.1-0.9,0-1.7-0.4-2.6c-0.9-1.9-1.7-3.8-2.6-5.7c-0.2-0.5-0.8-1.1,0-1.5c0.2-0.1,0.6,0.2,1.1,0.5c0.1,0.1,0.3,0,0.4-0.1
		c0-0.1,0.1-0.3,0.2-0.5c0.1-0.2,0.4-0.3,0.6-0.4C25,6,25.1,6,25.2,6.1c0.1,0.2,0.2,0.4,0.3,0.6c0,0.1,0,0.2-0.1,0.3
		c-1.1,2.2-0.1,4,0.9,5.9c0.1,0.1,0.3,0.2,0.4,0c0.7-0.7,0.7-1.2,0.2-2.1c-0.3-0.5-0.5-1-0.6-1.5c0-0.2,0.1-0.5,0.3-0.7
		c0.1-0.1,0.2-0.2,0.3-0.1C27,8.7,27.2,8.8,27.4,9c0,0,0.1,0.1,0.1,0.1c0.3-0.1,0.3-0.1,0.7-0.1c0.1-0.4,0.2-0.9,0.2-1.3
		c0.1-0.5,0.2-0.9,0.8-0.7c0.2,0.1,0.5,0.6,0.5,0.9c-0.3,2.5-1,4.8-2.4,6.8c-0.1,0.2-0.2,0.4-0.2,0.7c0,0.2,0.2,0.3,0.4,0.2
		c1.6-1.4,2.8-3,2.9-5.3c0-1,0.3-2,0.6-3c0.1-0.2,0.4-0.3,0.7-0.4c0.1-0.1,0.3,0,0.3,0.1C31.9,7.3,32,7.5,32,7.8
		c-0.1,0.4-0.2,0.8-0.3,1.2c0.4,0.2,0.3,0.2,0.7,0.4c0.1-0.1,0.1-0.1,0.2-0.2C32.8,9.1,33,9,33.3,9c0.1,0,0.2,0.1,0.3,0.2
		c0.1,0.3,0.2,0.6,0.1,0.7c-0.5,0.6-1.1,1.1-1.7,1.7c-0.2,0.2-0.6,0.5-0.7,0.8c-0.8,2.1-2.1,3.8-3.9,5.1c-0.5,0.4-0.7,0.8-0.7,1.4
		c0,0.2,0.2,0.3,0.3,0.2c1.6-0.8,3.2-1.3,4.2-3c0.8-1.4,1.6-2.8,1.9-4.4c0.1-0.5,0.3-1,0.9-0.8c0.6,0.2,0.5,0.7,0.3,1.1
		c-0.1,0.3-0.2,0.6-0.2,0.9c0,0.2,0.1,0.3,0.3,0.3c0.5-0.1,0.9-0.1,1.4-0.1c0.2,0,0.4,0.2,0.6,0.4c0.1,0.1,0.1,0.2,0,0.3
		c-0.2,0.2-0.3,0.4-0.5,0.5c-0.3,0.1-0.6,0.2-0.9,0.1c-1.2-0.1-1.8,0.5-2.2,1.3c0.3,0.3,0.2,0.2,0.5,0.5c0.4-0.2,0.7-0.5,1-0.7
		c0.4-0.3,0.7-0.5,1.1-0.1c0.4,0.4,0.1,0.9-0.3,1.1c-1.1,0.6-2.1,1.2-3.2,1.7c-0.7,0.3-1.4,0.5-2,0.8c-0.8,0.3-1.4,0.9-2.2,1.1
		c-1,0.3-1.5,0.9-1.7,2c-0.1,0.8-0.7,1.6-0.9,2.4c-0.1,0.3-0.1,0.5-0.1,0.8c0.4,0.1,0.4,0.1,0.8,0.2c0.1-0.2,0.2-0.4,0.4-0.6
		c0.1-0.2,0.4-0.3,0.6-0.5c0.1-0.1,0.3,0,0.3,0.1c0.1,0.2,0.3,0.5,0.3,0.7c-0.1,1.1-0.9,1.8-1.9,2.3c-0.8,0.4-1.4,2-0.9,2.8
		c0.2,0.4,0.4,0.7,0.7,1.2c0.1,0.2,0.3,0.2,0.4,0c0.1-0.1,0.1-0.3,0.2-0.4c0.7-1.5,1.6-2.8,2.9-3.9c0.2-0.1,0.3-0.3,0.4-0.5
		c0.1-0.9,0.1-1.7,0.1-2.5c0-0.1,0-0.2-0.1-0.2c-0.6-0.5-1.3-0.9-1.8-1.4c-0.4-0.3-0.6-0.8-0.1-1.2c0.4-0.4,0.8-0.1,1,0.3
		c0.1,0.2,0.3,0.3,0.5,0.5c0.8,0.6,1,0.5,1.4-0.4c0.2-0.4,0.3-0.9,0.6-1.3c0.1-0.2,0.4-0.2,0.6-0.3c0.1,0,0.2,0,0.3,0.1
		c0.1,0.2,0.3,0.5,0.2,0.7c-0.2,0.7-0.6,1.4-0.8,2.1c-0.2,0.7-0.4,1.4-0.5,2.1c0,0.2,0.2,0.4,0.4,0.2c1-0.8,1.8-1.8,2.3-3
		c0.5-1.1,1-2.1,1.5-3.2c0.1-0.2,0.4-0.3,0.7-0.4c0.1,0,0.2,0,0.3,0.1c0.1,0.2,0.3,0.5,0.2,0.7c-1.3,3.1-2.7,6.2-5.7,8.1
		c-1.3,0.8-2.2,2-3,3.4c-1,2-1.2,2.9-0.9,5.1c0,0.2,0.2,0.3,0.4,0.2c0.5-0.3,1-0.6,1.4-1c0.4-0.4,0.7-1,1.1-1.5
		c0.5-0.7,0.5-1.4-0.3-2c-0.4-0.3-0.7-0.7-0.3-1.2c0.5-0.5,0.9-0.1,1.2,0.2c0.1,0.1,0.2,0.2,0.3,0.3c0.1,0.1,0.3,0.1,0.4-0.1
		c0.3-0.8,0.6-1.6,0.8-2.3c0.1-0.4,0.3-0.9,0.8-0.8c0.6,0.1,0.6,0.6,0.4,1.1c-0.1,0.3-0.2,0.7-0.2,1c0,0.2,0.1,0.3,0.3,0.3
		c1.2-0.2,2.1-1.1,2.8-2.6c0-0.1,0-0.2-0.1-0.3c-0.4-0.2-0.7-0.4-1.1-0.7c-0.2-0.2-0.2-0.4-0.3-0.7c0-0.1,0-0.3,0.2-0.3
		c0.3-0.1,0.5-0.1,0.8-0.1c0.2,0,0.4,0.2,0.6,0.3c0.1,0.1,0.3,0,0.4-0.2c0.2-1.2,0.4-2.2,0.6-3.3c0-0.1,0-0.3,0.1-0.4
		c0.2-0.2,0.4-0.3,0.6-0.4c0.1-0.1,0.2-0.1,0.3,0c0.2,0.2,0.4,0.4,0.4,0.6c0,0.4-0.1,0.8-0.1,1.2c0.3,0.2,0.3,0.2,0.6,0.3
		c0.2-0.2,0.3-0.3,0.4-0.5c0.3-0.4,0.5-0.7,1-0.4c0.5,0.3,0.4,0.8,0,1.1c-0.6,0.6-1.2,1.1-1.9,1.5c-0.4,0.2-0.7,0.4-0.7,0.9
		c-0.5,3-2.2,4.7-5.2,5.4c-0.4,0.1-0.8,0.7-1.1,1.2c-0.5,0.9-0.9,1.9-1.5,2.7c-0.6,0.7-1.5,1.3-2.3,1.7c-0.5,0.3-0.8,0.8-0.9,1.3
		c-0.1,0.4-0.2,0.8-0.2,1.3c0.1,0,0.2,0.1,0.3,0.1c2-0.6,3.9-1.5,5.3-3.2c0.3-0.3,0.4-0.8,0.5-1.3c0.1-0.7,0.1-1.5,0.3-2.2
		c0.1-0.2,0.3-0.4,0.6-0.5c0.1-0.1,0.3,0,0.3,0.1c0.1,0.2,0.3,0.4,0.3,0.7c0,0.5-0.1,1.1-0.2,1.7c0,0.2,0.1,0.3,0.3,0.3
		c1-0.2,1.8-0.5,2.3-1.4c0.1-0.2,0.2-0.4,0.4-0.5c1.5-0.8,1.7-2.2,1.6-3.7c0-0.1,0-0.2,0-0.3c0-0.5,0-1,0.7-1c0.7,0,0.6,0.6,0.6,1
		c0,0.4,0,0.8,0,1.3c0,0.2,0.2,0.3,0.4,0.2c0.4-0.3,0.7-0.5,1-0.7c0.2-0.1,0.5-0.1,0.7-0.1c0.1,0,0.2,0.1,0.3,0.2
		c0,0.3,0.1,0.7-0.1,0.8c-0.5,0.4-1.1,0.9-1.7,1.1c-0.8,0.2-1.1,0.6-1.6,1.2c-0.1,0.1,0,0.4,0.2,0.4c0.4,0,0.7,0.1,1,0.2
		c0.2,0.1,0.4,0.3,0.6,0.4c0.1,0.1,0.1,0.2,0,0.3c-0.2,0.2-0.4,0.4-0.6,0.4c-0.7,0-1.4-0.2-2.3-0.4c-0.1,0-0.2,0-0.2,0.1
		c-0.8,0.9-2,1.2-3.3,1.7c-0.6,0.2-1.1,0.8-1.5,1.3c0.2,0.3,0.2,0.3,0.3,0.7c0.5,0,0.9-0.1,1.4-0.2c0.5-0.1,1-0.3,1.1,0.3
		c0.2,0.6-0.3,0.8-0.8,0.9c-1.1,0.4-2.2,0.3-3.4,0c-0.4-0.1-0.9,0-1.3,0.1c-1.1,0.4-2.2,0.9-3.3,1.3c-0.6,0.2-0.9,0.5-1,1
		c0,0.1,0.1,0.3,0.2,0.3c0.9,0.1,1.7,0.2,2.6,0.3c0.2,0,0.3,0.1,0.5,0.1c0.5,0.1,1.1,0.1,1,0.9c-0.1,0.8-0.8,0.5-1.3,0.4
		c-2.8-0.6-5.6-0.6-8.4,0c-0.2,0-0.4,0.1-0.5,0.1c-0.2-0.1-0.4-0.2-0.6-0.3c-0.1-0.1-0.1-0.2-0.1-0.3c0.1-0.2,0.3-0.5,0.4-0.5
		c1.1-0.2,2.2-0.4,3.3-0.5c1.2-0.1,2-0.9,2.1-2.1c0-0.4-2.1-2.3-2.5-2.3c-1.1,0.1-2.2,0.1-3.3,0.2c-0.3,0-0.6,0.3-0.8,0.4
		c-0.7,0.5-1.4,1-2.2,1.4c-0.1,0.1-0.4-0.1-0.7-0.3c-0.1-0.1-0.2-0.2-0.1-0.3c0.1-0.2,0.3-0.4,0.4-0.6c0.2-0.1,0.4-0.2,0.6-0.3
		c0-0.4,0-0.3-0.1-0.7c-0.2,0-0.3-0.1-0.5-0.1c-0.5-0.1-0.9-0.3-0.7-0.8c0.1-0.2,0.6-0.4,0.9-0.4c0.4,0,0.9,0.1,1.3,0.2
		c0.2-0.3,0.2-0.3,0.3-0.6c-0.2-0.2-0.4-0.4-0.6-0.6c-0.3-0.3-0.7-0.6-0.3-1.1c0.4-0.4,0.8-0.2,1.1,0.1c0.5,0.5,1.1,1,1.5,1.6
		c0.4,0.7,0.9,0.8,1.6,0.7c0.3-0.1,0.6-0.1,0.9-0.2c0.1,0,0.2-0.1,0.2-0.2c0.2-1.7-0.7-2.8-2.1-3.6c-0.1-0.1-0.3-0.1-0.5-0.1
		c-1.4,0-2.9,0.1-4.3,0.2c-0.2,0-0.4,0.1-0.6,0.2c-1.3,0.6-2.7,1.2-4,1.7c-0.5,0.2-1.1,0.5-1.4-0.3c-0.2-0.7,0.5-0.7,1-0.9
		c1-0.3,2-0.7,3-1c0.1,0,0.2-0.2,0.1-0.3c-0.3-0.6-0.7-0.6-1.3-0.6c-0.8,0.1-1.6,0-2.5-0.2c-0.2,0-0.3-0.3-0.4-0.6
		c-0.1-0.1,0-0.2,0.1-0.3c0.2-0.1,0.4-0.3,0.6-0.3c0.9-0.1,1.9-0.1,2.8-0.1c0.4,0,1,0.2,1.2,0.6c0.6,0.7,1.2,0.9,2.1,0.8
		c0.7-0.1,1.5-0.1,2.3-0.1c0.2,0,0.3-0.2,0.2-0.4c-0.4-0.7-0.7-1.4-1.6-1.8c-1-0.4-1.9-1-2.9-1.5c-0.4-0.2-0.7-0.3-1.1,0
		c-0.6,0.3-1.2,0.6-1.9,0.8c-0.2,0.1-0.4-0.1-0.7-0.3c-0.1-0.1-0.1-0.2-0.1-0.3c0.1-0.2,0.2-0.5,0.4-0.6c0.2-0.1,0.4-0.2,0.7-0.3
		c0-0.4,0-0.3-0.1-0.7c-0.4-0.1-0.8-0.2-1.1-0.3C9.3,27,9.1,26.8,9,26.6c-0.1-0.1-0.1-0.3,0-0.3c0.2-0.2,0.5-0.4,0.7-0.4
		c1.1,0.3,2.3,0.7,3.4,1.2c0.9,0.4,1.8,1,2.7,1.5c0.2,0.1,0.4-0.1,0.3-0.2c-0.1-0.9-0.2-1.7-1.1-2.2c-1.3-0.7-2.7-1.5-4-2.2
		c-0.4-0.2-0.9-0.5-0.6-1c0.1-0.2,0.8-0.3,1.1-0.2c1.4,0.6,2.7,1.3,4.1,2c0.2,0.1,0.4-0.1,0.3-0.2c0-0.2,0-0.4,0-0.5
		c0.1-0.2,0.2-0.4,0.4-0.6c0.1-0.1,0.2-0.1,0.3-0.1c0.2,0.2,0.5,0.3,0.5,0.5c0.1,0.5,0.3,1.2,0.1,1.7c-0.3,0.9,0,1.7,0.2,2.6
		c0.6,2.2,1.7,3.9,3.6,5.2c1.1,0.8,1.7,1.8,1.8,3.2c0.1,1.1,0.8,1.8,1.7,2.6c0.1,0.1,0.4,0.1,0.4-0.1c0.3-1.4,0.3-2.8,0.1-4.1
		c0-0.4-0.1-0.7-0.2-1.1c-0.5-1.7-0.5-1.6-2.1-1.9c-0.9-0.1-1.7-0.6-2.5-1c-0.4-0.2-0.8-0.6-0.3-1.1c0.4-0.4,0.8-0.2,1.1,0.1
		c0.5,0.4,1.1,0.7,1.8,0.7c0.2,0,0.3-0.3,0.2-0.4c-0.2-0.1-0.3-0.3-0.4-0.4c-1.5-1.1-2.5-2.5-3.1-4.3c-0.2-0.8-1-1.5-1.3-2.3
		c-0.4-0.9-0.9-1.3-1.9-1.5c-0.9-0.2-1.7-0.8-2.4-1.3c-0.2-0.2-0.4-0.8-0.3-1c0.3-0.5,0.7-0.2,1.1,0.1c0.4,0.3,0.9,0.6,1.4,0.8
		c0.3-0.3,0.3-0.3,0.6-0.6c-0.1-0.2-0.2-0.4-0.4-0.6c-0.4-0.6-0.9-1.1-1.2-1.6c-0.2-0.4-0.3-0.9,0.2-1.1c0.2-0.1,0.6,0.3,0.9,0.5
		c0.1,0.1,0.2,0.3,0.3,0.4c1.4,1.3,2.1,2.9,2.5,4.7c0,0,0,0,0,0c0.1,0.3,0.5,0.2,0.5-0.1c0-0.4,0-0.8,0-1.2c0-0.4,0-0.9,0.5-0.9
		c0.2,0,0.7,0.4,0.7,0.7c0,1-0.2,1.9-0.3,2.8c0,0.2-0.2,0.4-0.2,0.5c0.8,1.6,1,3.4,2.6,4.6c0.1,0.1,0.2,0.2,0.4,0.3
		c0.1,0.1,0.4,0,0.4-0.2c0.1-1,0.3-1.9,0.3-2.7c0-3.3-2-5.8-3.8-8.3c-0.4-0.6-1.2-0.8-1.7-1.3c-1-1.2-2.2-1.7-3.7-2
		c-0.5-0.1-1-0.2-0.8-0.9c0.1-0.6,0.7-0.5,1.1-0.4c0.2,0,0.4,0.1,0.6,0.1c0.2,0,0.3-0.1,0.3-0.3c-0.1-0.4-0.3-0.8-0.3-1.2
		c0-0.3,0.2-0.8,0.4-0.9c0.5-0.2,0.7,0.1,0.8,0.6c0.4,1.5,1.2,2.8,2.3,3.8c0.2,0.2,0.4,0.3,0.5,0.4C19.6,15.6,19.7,15.6,19.8,15.6z"
		/>
</g>
<g>
	<g>
		<path class="st2" d="M41.6,14.2v17.3c0,2.2-1.8,4.1-4.1,4.1h-5.6v-5.2c5.2-5.8,0.9-15.3-7-15.2c-7.8,0-12,9.5-6.8,15.2v5.2h-5.6
			c-2.2,0-4.1-1.8-4.1-4.1V14.2c0-2.2,1.8-4.1,4.1-4.1h25C39.8,10.2,41.6,12,41.6,14.2z"/>
		<path class="st2" d="M24.1,33.5v2.1h1.8v-2.1C25.3,33.6,24.7,33.6,24.1,33.5z"/>
	</g>
	<g>
		<path class="st2" d="M19.6,39.3c0,1.4,1.7,2.1,2.7,1.1c0.3-0.3,0.5-0.7,0.5-1.1v-6.1c-1.1-0.3-2.2-0.8-3.1-1.5V39.3z"/>
		<path class="st2" d="M27.4,39.3c0,1.4,1.7,2.1,2.7,1.1c0.3-0.3,0.5-0.7,0.5-1.1v-7.6c-0.9,0.7-2,1.2-3.1,1.5V39.3z"/>
		<path class="st2" d="M25,16.6c-5.9,0-9.6,6.6-6.6,11.6c1,1.7,2.5,2.9,4.4,3.5c0,0,0,0,0,0c2.7,0.9,5.8,0.1,7.8-1.9
			C35.4,25,31.9,16.6,25,16.6z M20.2,20.6c0-0.2,0.1-0.4,0.2-0.6c0.3-0.7,0.9-1.2,1.5-1.5c0.4-0.2,0.8-0.3,1.2-0.3
			c0.4,0,0.9,0.1,1.2,0.3c0.6,0.3,1.2,0.8,1.5,1.5c0.2,0.4,0.3,0.8,0.3,1.3c0,0.5-0.1,0.9-0.3,1.3c-0.3,0.7-0.9,1.2-1.5,1.5
			c-0.4,0.2-0.8,0.3-1.2,0.3c-0.4,0-0.9-0.1-1.2-0.3c-0.6-0.3-1.2-0.8-1.5-1.5c-0.2-0.4-0.3-0.8-0.3-1.3
			C20.1,21,20.2,20.8,20.2,20.6z M26.2,28.1c0,0.2-0.1,0.4-0.2,0.6c-0.3,0.7-0.9,1.2-1.5,1.5c-0.4,0.2-0.8,0.3-1.2,0.3
			c-0.4,0-0.9-0.1-1.2-0.3c-0.6-0.3-1.2-0.8-1.5-1.5c-0.2-0.4-0.3-0.8-0.3-1.3c0-0.5,0.1-0.9,0.3-1.3c0.3-0.7,0.9-1.2,1.5-1.5
			c0.4-0.2,0.8-0.3,1.2-0.3c0.4,0,0.9,0.1,1.2,0.3c0.6,0.3,1.2,0.8,1.5,1.5c0.2,0.4,0.3,0.8,0.3,1.3C26.2,27.7,26.2,27.9,26.2,28.1z
			 M31.4,25.7c-0.3,0.7-0.9,1.2-1.5,1.5c-0.4,0.2-0.8,0.3-1.2,0.3c-0.4,0-0.9-0.1-1.2-0.3c-0.6-0.3-1.2-0.8-1.5-1.5
			c-0.2-0.4-0.3-0.8-0.3-1.3c0-0.5,0.1-0.9,0.3-1.3c0.3-0.7,0.9-1.2,1.5-1.5c0.4-0.2,0.8-0.3,1.2-0.3c0.4,0,0.9,0.1,1.2,0.3
			c0.6,0.3,1.2,0.8,1.5,1.5c0.2,0.4,0.3,0.8,0.3,1.3c0,0.2,0,0.5-0.1,0.7C31.5,25.3,31.5,25.5,31.4,25.7z"/>
		<path class="st2" d="M30.9,25.4c0.1-0.3,0.2-0.6,0.2-1c0-0.4-0.1-0.7-0.2-1c-0.3-0.5-0.7-1-1.2-1.2c-0.7-0.3-1.4-0.3-2.1,0
			c-0.5,0.3-1,0.7-1.2,1.2c-0.1,0.3-0.2,0.6-0.2,1c0,0.4,0.1,0.7,0.2,1c0.3,0.5,0.7,1,1.2,1.2c0.7,0.3,1.4,0.3,2.1,0
			C30.2,26.4,30.6,26,30.9,25.4z M28.6,26.3c-0.3,0-0.6-0.1-0.8-0.2c-0.4-0.2-0.7-0.5-0.9-0.9c0,0,0,0,0,0c0,0,0-0.1-0.1-0.1
			c-0.1-0.3-0.2-0.5-0.2-0.8c0-0.3,0.1-0.6,0.2-0.8c0,0,0-0.1,0.1-0.1c0,0,0,0,0,0c0.2-0.4,0.5-0.7,0.9-0.9c0.2-0.1,0.5-0.2,0.8-0.2
			c0.3,0,0.6,0.1,0.8,0.2c0.4,0.2,0.8,0.5,1,1c0.1,0.3,0.2,0.5,0.2,0.8l0,0l0,0c0,0.3-0.1,0.6-0.2,0.8c-0.2,0.5-0.6,0.8-1,1
			C29.2,26.3,28.9,26.3,28.6,26.3z"/>
		<path class="st2" d="M20.9,22.3c0.3,0.5,0.7,1,1.2,1.2c0.7,0.3,1.4,0.3,2.1,0c0.5-0.3,1-0.7,1.2-1.2c0.1-0.3,0.2-0.6,0.2-1
			c0-0.4-0.1-0.7-0.2-1c-0.3-0.5-0.7-1-1.2-1.2c-0.7-0.3-1.4-0.3-2.1,0c-0.5,0.3-1,0.7-1.2,1.2c-0.1,0.3-0.2,0.6-0.2,1
			C20.7,21.7,20.8,22,20.9,22.3z M22.4,19.5c0.2-0.1,0.5-0.2,0.8-0.2c0.3,0,0.6,0.1,0.8,0.2c0.4,0.2,0.7,0.5,0.9,0.9c0,0,0,0,0,0
			c0,0,0,0.1,0.1,0.1c0.1,0.3,0.2,0.5,0.2,0.8c0,0.3-0.1,0.6-0.2,0.8c0,0,0,0.1-0.1,0.1c0,0,0,0,0,0c-0.2,0.4-0.5,0.7-0.9,0.9
			c-0.2,0.1-0.5,0.2-0.8,0.2c-0.3,0-0.6-0.1-0.8-0.2c-0.4-0.2-0.8-0.5-1-1c-0.1-0.3-0.2-0.5-0.2-0.8l0,0l0,0c0-0.3,0.1-0.6,0.2-0.8
			C21.6,20,22,19.6,22.4,19.5z"/>
		<path class="st2" d="M25.5,26.4c-0.3-0.6-0.7-1-1.2-1.2c-0.7-0.3-1.4-0.3-2.1,0c-0.5,0.3-1,0.7-1.2,1.2c-0.1,0.3-0.2,0.6-0.2,1
			c0,0.4,0.1,0.7,0.2,1c0.3,0.5,0.7,1,1.2,1.2c0.7,0.3,1.4,0.3,2.1,0c0.5-0.3,1-0.7,1.2-1.2c0.1-0.3,0.2-0.6,0.2-1
			C25.7,27.1,25.6,26.7,25.5,26.4z M25,28.3c-0.2,0.5-0.6,0.8-1,1c-0.2,0.1-0.5,0.2-0.8,0.2c-0.3,0-0.6-0.1-0.8-0.2
			c-0.4-0.2-0.7-0.5-0.9-0.9c0,0,0,0,0,0c0,0,0-0.1-0.1-0.1c-0.1-0.3-0.2-0.5-0.2-0.8c0-0.3,0.1-0.6,0.2-0.8c0,0,0-0.1,0.1-0.1l0,0
			c0.2-0.4,0.5-0.7,0.9-0.9c0.2-0.1,0.5-0.2,0.8-0.2c0.3,0,0.6,0.1,0.8,0.2c0.4,0.2,0.8,0.5,1,1c0.1,0.3,0.2,0.5,0.2,0.8
			C25.2,27.8,25.1,28,25,28.3z"/>
	</g>
</g>
<rect x="45.5" y="23.8" class="st3" width="10.8" height="2.5"/>
</svg>
