<?xml version="1.0" encoding="utf-8"?>
<!-- Generator: Adobe Illustrator 26.0.3, SVG Export Plug-In . SVG Version: 6.00 Build 0)  -->
<svg version="1.1" id="Calque_1" xmlns="http://www.w3.org/2000/svg" xmlns:xlink="http://www.w3.org/1999/xlink" x="0px" y="0px"
	 viewBox="0 0 50 40.3" style="enable-background:new 0 0 50 40.3;" xml:space="preserve">
<style type="text/css">
	.st0{fill:#2677ED;}
</style>
<g id="Calque_5">
	<path class="st0" d="M3.5,25.3c0-0.3,0-0.6,0.1-0.9L3.6,24l0.1-0.4l0.2-0.9l0.2-0.9c0.3-1.2,0.8-2.3,1.3-3.4c0.6-1.1,1.3-2.2,2-3.1
		c0.8-1,1.7-1.9,2.7-2.7c1-0.8,2.1-1.5,3.3-2c1.2-0.5,2.3-0.9,3.6-1.2c2.3-0.5,4.7-0.8,7.1-0.9c1.2,0,2.3,0,3.4,0
		c1.1,0,2.2,0.1,3.3,0.1s2.1,0,3.2,0c1,0,2.1-0.1,3.1-0.3c2-0.3,4-1,5.7-2.2l0.3-0.2c0.1,0,0.2-0.2,0.3-0.2s0.4-0.3,0.6-0.5
		c0.2-0.2,0.4-0.4,0.6-0.6c0.2-0.2,0.4-0.4,0.5-0.6c0.7-0.8,1.4-1.8,2-2.7c-0.2,1.1-0.6,2.2-1.1,3.3C46,4.8,45.8,5,45.7,5.3
		c-0.1,0.3-0.3,0.5-0.5,0.8c-0.3,0.5-0.7,1-1.1,1.5c-1.7,1.8-3.8,3.2-6.1,3.9c-1.1,0.4-2.3,0.7-3.5,0.9c-1.2,0.2-2.3,0.3-3.5,0.5
		s-2.3,0.2-3.4,0.3c-1.1,0.1-2.2,0.2-3.3,0.3c-2.1,0.1-4.1,0.5-6.2,1c-1.9,0.5-3.7,1.3-5.3,2.3c-1.7,1.1-3.2,2.3-4.6,3.8
		c-0.7,0.8-1.4,1.6-2.1,2.4c-0.7,0.8-1.4,1.8-2.1,2.7l0,0c-0.1,0.1-0.3,0.2-0.5,0.1c0,0,0,0,0,0C3.6,25.5,3.5,25.4,3.5,25.3z"/>
	<path class="st0" d="M7.3,32.1c-0.6-3.7,0.6-7.5,3.1-10.3c0.9-1,1.9-1.8,2.9-2.5c1-0.7,2.2-1.2,3.3-1.6c1.1-0.4,2.3-0.7,3.4-1
		c2.2-0.5,4.5-0.8,6.7-1.1c2.2-0.3,4.3-0.5,6.4-0.8c2-0.3,4.1-0.8,6-1.4c0.2-0.1,0.5-0.2,0.7-0.3c0.2-0.1,0.5-0.2,0.7-0.3l0.4-0.1
		l0.4-0.1l0.3-0.1l0.3-0.2c0.9-0.5,1.7-1.1,2.5-1.8c0.2-0.2,0.4-0.3,0.6-0.5c0.2-0.2,0.4-0.4,0.5-0.6C45.7,9.2,45.9,9,46,8.8
		l0.3-0.3l0.2-0.3c0.6-0.9,1.2-1.8,1.7-2.8c-0.4,2.2-1.2,4.3-2.5,6.2c-1.4,2-3.2,3.6-5.3,4.7c-2.1,1.1-4.2,2-6.5,2.6
		c-2.2,0.6-4.4,1-6.6,1.4c-2.1,0.4-4.2,0.8-6.2,1.3c-1,0.2-1.9,0.5-2.9,0.9c-0.9,0.3-1.8,0.7-2.6,1.1c-1.7,0.8-3.2,1.9-4.4,3.3
		c-0.7,0.8-1.2,1.6-1.8,2.4c-0.5,0.9-1.1,1.9-1.6,2.9l0,0c-0.1,0.2-0.3,0.2-0.5,0.1C7.3,32.3,7.3,32.2,7.3,32.1L7.3,32.1z"/>
	<path class="st0" d="M10.9,38.8c-0.4-1.1-0.5-2.3-0.5-3.5c0-1.2,0.3-2.5,0.8-3.6c0.5-1.2,1.3-2.3,2.2-3.2c0.9-0.9,1.9-1.7,3-2.3
		c2.1-1.1,4.2-2,6.5-2.5c2.2-0.6,4.3-1,6.4-1.4s4.2-0.9,6.1-1.4c2-0.5,3.9-1.2,5.7-2c1.8-0.9,3.5-2,5-3.4l0.5-0.5
		c0.2-0.2,0.3-0.4,0.5-0.6c0.3-0.4,0.7-0.8,1-1.2c0.6-0.9,1.2-1.8,1.7-2.7c-0.3,2.2-1,4.4-2.2,6.3c-1.3,2-2.9,3.6-4.8,4.9
		c-1.9,1.3-3.9,2.4-6.1,3.2c-2.1,0.8-4.2,1.5-6.3,2.1c-2.1,0.6-4.2,1.1-6.2,1.7c-1,0.3-2,0.6-2.9,0.9s-1.9,0.7-2.7,1.1
		c-0.8,0.4-1.6,0.8-2.4,1.3c-0.7,0.5-1.4,1.1-2,1.7c-0.3,0.3-0.6,0.7-0.8,1.1l-0.4,0.6c-0.1,0.2-0.2,0.4-0.4,0.7
		c-0.5,1-0.9,1.9-1.2,2.9l0,0c-0.1,0.2-0.3,0.2-0.5,0.2C11.1,38.9,11,38.8,10.9,38.8z"/>
</g>
</svg>
