<svg xmlns="http://www.w3.org/2000/svg" viewBox="0 0 50 28"><defs><style>.cls-1{fill:#2677ed;}</style></defs><g id="Calque_5" data-name="Calque 5"><path class="cls-1" d="M.4,11.44c.12-.27.24-.54.37-.8l.2-.4.22-.38.46-.77.5-.73A18.94,18.94,0,0,1,4.51,5.64a18.37,18.37,0,0,1,3-2.25,16.16,16.16,0,0,1,3.46-1.57,17.28,17.28,0,0,1,3.76-.75,20.71,20.71,0,0,1,3.78.07,32.66,32.66,0,0,1,7,1.63c1.1.37,2.17.77,3.23,1.17s2.08.82,3.1,1.2,2,.77,3.05,1.09a25.34,25.34,0,0,0,3,.79,13,13,0,0,0,6.07-.15l.37-.11c.12,0,.25-.07.37-.12s.5-.18.74-.29.5-.21.73-.34.49-.24.72-.38a21.37,21.37,0,0,0,2.77-1.87A15.31,15.31,0,0,1,47.5,6.47c-.2.21-.42.4-.64.6s-.46.38-.69.56a11.9,11.9,0,0,1-1.51,1,13.74,13.74,0,0,1-7.12,1.59A24.81,24.81,0,0,1,34,9.84c-1.17-.21-2.3-.48-3.42-.76s-2.19-.61-3.27-.91-2.13-.61-3.17-.88A34.43,34.43,0,0,0,18,6.13a20.22,20.22,0,0,0-5.78.36,22.74,22.74,0,0,0-5.6,2c-.94.47-1.87,1-2.81,1.56S1.91,11.28.89,11.87h0a.34.34,0,0,1-.47-.12A.37.37,0,0,1,.4,11.44Z"/><path class="cls-1" d="M1.59,19.14A12.58,12.58,0,0,1,8,10.55a14,14,0,0,1,3.61-1.31,16.72,16.72,0,0,1,3.69-.39,27.54,27.54,0,0,1,3.56.23,67.35,67.35,0,0,1,6.67,1.27c2.14.5,4.23,1,6.3,1.42a31.57,31.57,0,0,0,6.13.7c.25,0,.51,0,.76,0s.5,0,.75,0l.38,0,.38,0,.37,0,.37-.07a14,14,0,0,0,2.93-.85,7.6,7.6,0,0,0,.71-.31,7.61,7.61,0,0,0,.7-.35c.24-.12.47-.26.69-.39l.35-.21.33-.22a25.51,25.51,0,0,0,2.58-2A14.78,14.78,0,0,1,44.79,13a15.82,15.82,0,0,1-6.57,2.64,27.85,27.85,0,0,1-7,.21c-2.28-.19-4.5-.54-6.66-.89s-4.26-.71-6.31-.92c-1-.1-2-.16-3-.17A22.17,22.17,0,0,0,12.4,14a14.11,14.11,0,0,0-5.27,1.63,18.77,18.77,0,0,0-2.49,1.68C3.82,18,3,18.7,2.16,19.46h0a.35.35,0,0,1-.57-.33Z"/><path class="cls-1" d="M2.77,26.64a10.19,10.19,0,0,1,.76-3.43,9.52,9.52,0,0,1,2-3.13A10.76,10.76,0,0,1,8.7,17.83a15.11,15.11,0,0,1,3.59-1.14,26.16,26.16,0,0,1,7-.16c2.24.2,4.39.52,6.51.83s4.2.6,6.26.78a33.52,33.52,0,0,0,6.09.05A18.19,18.19,0,0,0,44,16.68l.69-.33c.24-.11.46-.25.69-.37a15.47,15.47,0,0,0,1.33-.83,25,25,0,0,0,2.53-2A15.44,15.44,0,0,1,45,18.3a17.73,17.73,0,0,1-6.23,3,28.84,28.84,0,0,1-6.8.93c-2.26.06-4.49-.06-6.67-.22s-4.3-.39-6.37-.52c-1-.07-2.06-.1-3-.11s-2,0-2.9.07a17.77,17.77,0,0,0-2.69.42,10.1,10.1,0,0,0-2.46.95,12.34,12.34,0,0,0-1.16.73L6.08,24c-.18.17-.37.32-.56.49a27.64,27.64,0,0,0-2.14,2.35h0a.35.35,0,0,1-.48,0A.34.34,0,0,1,2.77,26.64Z"/></g></svg>