<svg xmlns="http://www.w3.org/2000/svg" viewBox="0 0 50 37"><defs><style>.cls-1{fill:#2677ed;}</style></defs><g id="Calque_10" data-name="Calque 10"><path class="cls-1" d="M6.55,13.48a2.58,2.58,0,0,0,2.13-2.39c0-1.19-1-9.33-1.14-9.59h-.3V9.58a.59.59,0,0,1-.63.53A.59.59,0,0,1,6,9.58V1.5H5.47V9.58a.59.59,0,0,1-.63.53.59.59,0,0,1-.63-.53V1.5H3.56V9.58a.59.59,0,0,1-.63.53.59.59,0,0,1-.63-.53V1.5H2.13C2,1.76,1,9.9,1,11.09a2.56,2.56,0,0,0,2.12,2.39c.91.21.8,1.45.8,1.45l-.31,9.41a61.65,61.65,0,0,1-1.09,8.17c-.71,2.71.74,3.73,2.32,3.73s3-1,2.32-3.73a62.28,62.28,0,0,1-1.1-8.17l-.35-9.4S5.66,13.71,6.55,13.48Z"/><path class="cls-1" d="M48.86,32.1C48.42,29.87,48.09,19,48.09,19c0-.32,0-1.62,0-1.62V2.14c0-1.36-.89-1.25-.89-1.25C45.16.89,44.16,15,44.16,15s-.08,2.48,1,2.92S46.32,19,46.32,19,46,29.87,45.55,32.1,45.67,36,47.21,36,49.29,34.32,48.86,32.1Z"/><path class="cls-1" d="M33.29,19.75a7.44,7.44,0,1,1-7.44-7.39A7.43,7.43,0,0,1,33.29,19.75Z"/><path class="cls-1" d="M25.85,3.26A16.49,16.49,0,1,0,42.44,19.75,16.54,16.54,0,0,0,25.85,3.26Zm0,24.38a7.89,7.89,0,1,1,7.94-7.89A7.92,7.92,0,0,1,25.85,27.64Z"/></g></svg>