<?xml version="1.0" encoding="utf-8"?>
<!-- Generator: Adobe Illustrator 26.0.3, SVG Export Plug-In . SVG Version: 6.00 Build 0)  -->
<svg version="1.1" id="Calque_1" xmlns="http://www.w3.org/2000/svg" xmlns:xlink="http://www.w3.org/1999/xlink" x="0px" y="0px"
	 viewBox="0 0 50 37" style="enable-background:new 0 0 50 37;" xml:space="preserve">
<style type="text/css">
	.st0{fill:#2677ED;}
</style>
<g id="Calque_10">
	<path class="st0" d="M6.6,13.5c1.2-0.2,2.1-1.2,2.1-2.4c0-1.2-1-9.3-1.1-9.6H7.2v8.1c0,0.3-0.3,0.6-0.6,0.5C6.3,10.1,6,9.9,6,9.6
		V1.5H5.5v8.1c0,0.3-0.3,0.6-0.6,0.5c-0.3,0-0.6-0.2-0.6-0.5V1.5H3.6v8.1c0,0.3-0.3,0.6-0.6,0.5c-0.3,0-0.6-0.2-0.6-0.5V1.5H2.1
		C2,1.8,1,9.9,1,11.1c0.1,1.2,0.9,2.2,2.1,2.4c0.9,0.2,0.8,1.4,0.8,1.4l-0.3,9.4c-0.2,2.7-0.5,5.5-1.1,8.2c-0.7,2.7,0.7,3.7,2.3,3.7
		s3-1,2.3-3.7c-0.5-2.7-0.9-5.4-1.1-8.2l-0.3-9.4C5.7,14.9,5.7,13.7,6.6,13.5z"/>
	<path class="st0" d="M48.9,32.1C48.4,29.9,48.1,19,48.1,19c0-0.3,0-1.6,0-1.6V2.1c0-1.4-0.9-1.2-0.9-1.2c-2,0-3,14.1-3,14.1
		s-0.1,2.5,1,2.9s1.2,1.1,1.2,1.1S46,29.9,45.5,32.1s0.1,3.9,1.7,3.9S49.3,34.3,48.9,32.1z"/>
	<path class="st0" d="M32.3,19.8c0,3.5-2.8,6.4-6.3,6.4c-3.5,0-6.4-2.8-6.4-6.3c0-3.5,2.8-6.4,6.3-6.4c0,0,0,0,0,0
		C29.5,13.4,32.3,16.3,32.3,19.8z"/>
	<path class="st0" d="M25.9,3.3C16.7,3.3,9.4,10.7,9.5,19.8C9.5,29,16.9,36.3,26,36.2c9.1-0.1,16.4-7.4,16.4-16.5
		C42.4,10.6,35,3.2,25.9,3.3C25.9,3.3,25.9,3.3,25.9,3.3z M25.9,27.6c-4.4,0-7.9-3.6-7.8-7.9s3.6-7.9,7.9-7.8c4.3,0,7.8,3.6,7.8,7.9
		C33.8,24.1,30.2,27.7,25.9,27.6z"/>
</g>
</svg>
