<?xml version="1.0" encoding="utf-8"?>
<!-- Generator: Adobe Illustrator 26.0.3, SVG Export Plug-In . SVG Version: 6.00 Build 0)  -->
<svg version="1.1" id="Calque_1" xmlns="http://www.w3.org/2000/svg" xmlns:xlink="http://www.w3.org/1999/xlink" x="0px" y="0px"
	 viewBox="0 0 50 48" style="enable-background:new 0 0 50 48;" xml:space="preserve">
<style type="text/css">
	.st0{fill:#2677ED;stroke:#2677ED;stroke-width:0.4506;stroke-miterlimit:10;}
</style>
<g id="Calque_7">
	<path class="st0" d="M6.7,42.5c-0.1,0-0.2,0-0.3-0.1c-0.5-0.2-0.8-0.7-0.6-1.2L18,7.1c0.1-0.4,0.5-0.6,0.9-0.6
		c0.4,0,0.7,0.2,0.9,0.5l9.8,19.4l1.3-11.3c0-0.3,0.2-0.6,0.5-0.8c0.3-0.1,0.6-0.1,0.9,0l9.3,5.4l5.6-18c0.2-0.5,0.7-0.8,1.2-0.7
		s0.8,0.7,0.7,1.2l-5.9,19.3c-0.1,0.3-0.3,0.5-0.6,0.6c-0.3,0.1-0.6,0.1-0.8-0.1l-9.1-5.3l-1.5,13.1c0,0.4-0.4,0.8-0.8,0.8
		c-0.4,0.1-0.8-0.1-1-0.5L19,9.9l-11.4,32C7.5,42.3,7.1,42.5,6.7,42.5z"/>
</g>
</svg>
