<svg xmlns="http://www.w3.org/2000/svg" viewBox="0 0 185.49 34.81"><defs><style>.cls-1{fill:#fff;}</style></defs><g id="Calque_2" data-name="Calque 2"><g id="COMPATIBILITÉ_DOUBLE" data-name="COMPATIBILITÉ DOUBLE"><path class="cls-1" d="M101.24,20.42a9.63,9.63,0,0,0-5.7-7.07,16.19,16.19,0,0,0-17.07,1.24c-.57.38-1.11.81-1.79,1.31V1.74c0-1.82-.14-1.93-2-1.58l-.28.06-5,1.25L64.36,2.76c.19.7.55.91,1.22.71A6.52,6.52,0,0,1,68,3.27,2,2,0,0,1,70.08,5.2a30.35,30.35,0,0,1,.22,4.57q0,10.76,0,21.51c0,.39,0,.7.48.89a31.47,31.47,0,0,0,16,2.3A21.77,21.77,0,0,0,97.5,30.08,9.45,9.45,0,0,0,101.24,20.42ZM94.69,24a9,9,0,0,1-6.46,8.49,13.55,13.55,0,0,1-9.61-.89c-2-.84-1.94-.86-1.94-3V18.05c0-.28,0-.54.29-.74,3.71-2.32,7.64-3.14,11.87-1.65A8.28,8.28,0,0,1,94.69,24Z"/><path class="cls-1" d="M139.11,29.63c-.7.41-1.36.81-2,1.2a4.13,4.13,0,0,1-2.16.64A1.5,1.5,0,0,1,133.27,30a19,19,0,0,1-.14-2.5c-.07-3.43.07-6.85-.09-10.28a4.68,4.68,0,0,0-3-4.35,9.38,9.38,0,0,0-1.61-.58,31.13,31.13,0,0,0-11.5-.49,15.77,15.77,0,0,0-6.09,1.91,5.49,5.49,0,0,0-2.2,2.1A2.13,2.13,0,0,0,109.72,19a4.52,4.52,0,0,0,1.82.33c2.51,0,3.38-.87,3.26-3.34a2,2,0,0,1,.87-1.83,4.74,4.74,0,0,1,1.4-.71,11.21,11.21,0,0,1,6.34,0,4.16,4.16,0,0,1,3,3.19,12.66,12.66,0,0,1,.26,2.12c.06.65-.17.89-.8,1-3.42.73-6.82,1.55-10.17,2.57a25.54,25.54,0,0,0-6.17,2.59,5.29,5.29,0,0,0-2.46,2.77,4.58,4.58,0,0,0,2.09,5.18,10.25,10.25,0,0,0,5.27,1.61,16.11,16.11,0,0,0,8.29-1.73c1.27-.62,2.58-1.2,3.88-1.8.31,2.16,1,3,2.69,3.37a7.65,7.65,0,0,0,2.7.09,14.65,14.65,0,0,0,6.43-2.91A1.53,1.53,0,0,0,139.11,29.63Zm-12.4-8.09c0,1.24,0,2.48,0,3.72s0,2.38,0,3.57c0,.3,0,.53-.35.69a20.52,20.52,0,0,1-6.69,2.17,6.66,6.66,0,0,1-4.49-1.05c-2.21-1.49-2.32-3.89-.22-5.52a15.44,15.44,0,0,1,5.3-2.41c2-.56,4-1,5.93-1.56C126.61,21,126.72,21.1,126.71,21.54Z"/><path class="cls-1" d="M174.59,17.85A12.23,12.23,0,0,0,170,14a24.06,24.06,0,0,0-16.34-1.89,16.56,16.56,0,0,0-9,4.84c-2.12,2.29-3.23,4.95-2.54,8.1a9.89,9.89,0,0,0,4,5.83,20.25,20.25,0,0,0,12.3,3.83,24.26,24.26,0,0,0,8.85-1.54c3.24-1.29,6.06-3.14,7.79-6.28A8,8,0,0,0,174.59,17.85Zm-5.88,9.62a6.92,6.92,0,0,1-6,5.36,11.06,11.06,0,0,1-12-5.42,12.05,12.05,0,0,1-1.4-7.93,7,7,0,0,1,4-5.42c3.51-1.68,9.51-1.46,13,2.59a12,12,0,0,1,2.75,7.82A12.53,12.53,0,0,1,168.71,27.47Z"/><path class="cls-1" d="M13.83,18c0-3.73,0-7.47,0-11.21,0-2.66-.52-3.25-3.1-3.88a16.5,16.5,0,0,0-3.84-.29c-.3,0-.62.08-.63-.43s.29-.46.61-.46q10.7,0,21.38,0c.33,0,.6,0,.59.48s-.34.41-.64.41a17.27,17.27,0,0,0-4.12.3C22.18,3.37,21.6,4,21.39,6a16.26,16.26,0,0,0-.1,1.85c0,5,0,10.1,0,15.15a16.28,16.28,0,0,1-.36,3.75,8.58,8.58,0,0,1-4,5.57A16.65,16.65,0,0,1,3.22,34.12,5.75,5.75,0,0,1,.91,32.89a2.13,2.13,0,0,1,.46-3.74A5.05,5.05,0,0,1,7.54,30.3a19.11,19.11,0,0,1,1.22,1.59A2.65,2.65,0,0,0,11.56,33a2.62,2.62,0,0,0,2.09-2,6,6,0,0,0,.19-1.84V18Z"/><path class="cls-1" d="M61.9,25.92c-.41-.13-.76-.49-1.17.17a9,9,0,0,1-5.26,4,16.26,16.26,0,0,1-11.91-.89,9.6,9.6,0,0,1-5.8-8c-.06-.59,0-.83.71-.82,3.84,0,7.68,0,11.52,0s7.72,0,11.58,0c.63,0,.75-.18.68-.78a7.12,7.12,0,0,0-1.42-3.53,10.76,10.76,0,0,0-5.19-3.52,23,23,0,0,0-11.15-.8,17.27,17.27,0,0,0-7.91,3.07,10.21,10.21,0,0,0-4,11.1A10.67,10.67,0,0,0,38,32.4a19.32,19.32,0,0,0,8.76,2.31,17.92,17.92,0,0,0,11.54-3.24,10.34,10.34,0,0,0,3.72-4.69C62.16,26.49,62.48,26.11,61.9,25.92ZM40.1,15.2a11,11,0,0,1,11.74-.53,4.87,4.87,0,0,1,2.31,3.9c0,.51-.22.47-.55.47H37.76A5.61,5.61,0,0,1,40.1,15.2Z"/><path class="cls-1" d="M181.58,6.27l.6-.26a1.07,1.07,0,0,0-.08-2,9.66,9.66,0,0,0-3.26-.15c.69.59.67,4.12-.08,4.67h1.94a.77.77,0,0,1-.51-1c0-.23,0-.48,0-.71s-.11-.41.15-.49.39.09.53.26c.37.47.75.93,1.13,1.39.5.62.6.65,1.42.41A11.85,11.85,0,0,1,181.58,6.27Zm-1-.23c-.82,0-.24-.69-.45-1,.13-.41-.28-1.07.58-1a1.15,1.15,0,0,1,1.17,1C182,5.61,181.38,6.07,180.62,6Z"/><path class="cls-1" d="M184.24,3.46a4.73,4.73,0,0,0-5.52-.52,3.65,3.65,0,0,0-1.33,5.23,4.37,4.37,0,0,0,3.68,1.9,6.76,6.76,0,0,0,.69-.05,4.07,4.07,0,0,0,3.52-2.74A3.46,3.46,0,0,0,184.24,3.46Zm-.55,5.43a4.52,4.52,0,0,1-2.75.84,3.78,3.78,0,0,1-3.51-2.3,3.14,3.14,0,0,1,.68-3.56,4.31,4.31,0,0,1,5.68-.34A3.35,3.35,0,0,1,183.69,8.89Z"/><path class="cls-1" d="M181.58,6.27l.6-.26a1.07,1.07,0,0,0-.08-2,9.66,9.66,0,0,0-3.26-.15c.69.59.67,4.12-.08,4.67h1.94a.77.77,0,0,1-.51-1c0-.23,0-.48,0-.71s-.11-.41.15-.49.39.09.53.26c.37.47.75.93,1.13,1.39.5.62.6.65,1.42.41A11.85,11.85,0,0,1,181.58,6.27Zm-1-.23c-.82,0-.24-.69-.45-1,.13-.41-.28-1.07.58-1a1.15,1.15,0,0,1,1.17,1C182,5.61,181.38,6.07,180.62,6Z"/><path class="cls-1" d="M181.58,6.27l.6-.26a1.07,1.07,0,0,0-.08-2,9.66,9.66,0,0,0-3.26-.15c.69.59.67,4.12-.08,4.67h1.94a.77.77,0,0,1-.51-1c0-.23,0-.48,0-.71s-.11-.41.15-.49.39.09.53.26c.37.47.75.93,1.13,1.39.5.62.6.65,1.42.41A11.85,11.85,0,0,1,181.58,6.27Zm-1-.23c-.82,0-.24-.69-.45-1,.13-.41-.28-1.07.58-1a1.15,1.15,0,0,1,1.17,1C182,5.61,181.38,6.07,180.62,6Z"/></g></g></svg>