<?xml version="1.0" encoding="utf-8"?>
<!-- Generator: Adobe Illustrator 26.0.3, SVG Export Plug-In . SVG Version: 6.00 Build 0)  -->
<svg version="1.1" id="Calque_1" xmlns="http://www.w3.org/2000/svg" xmlns:xlink="http://www.w3.org/1999/xlink" x="0px" y="0px"
	 viewBox="0 0 50 50" style="enable-background:new 0 0 50 50;" xml:space="preserve">
<style type="text/css">
	.st0{fill:#2677ED;}
</style>
<g id="Calque_2_00000160158508998833569690000003715380371441797020_">
	<path class="st0" d="M21.6,35c-1.5-0.3-2.9-0.8-4.3-1.3c-0.5-0.2-1.1-1.1-1-1.5c0.8-3.5-0.1-6.8-1.1-10.1c-1-3-1.1-6.2-0.3-9.2
		c2-6.6,8.9-10.4,15.6-8.5c0.3,0.1,0.6,0.2,0.9,0.3c6.5,2.4,9.8,10.1,7.1,16.6c-1.2,2.8-3.2,4.9-5.4,6.8c-2.3,1.9-4.2,4.4-5.3,7.1
		c-0.2,0.5-1.2,0.9-1.8,0.8C24.5,35.9,23,35.5,21.6,35L21.6,35z"/>
	<path class="st0" d="M16.5,38.1c-0.3-0.2-0.3-0.5-0.2-0.7c0.1-0.2,0.3-0.3,0.4-0.3l8.5,1.8c0.3,0.1,0.5,0.3,0.4,0.6
		c-0.1,0.3-0.3,0.5-0.6,0.4c0,0,0,0,0,0L16.5,38.1L16.5,38.1z"/>
	<path class="st0" d="M16.9,36.3c-0.3-0.1-0.4-0.4-0.3-0.7c0.1-0.2,0.3-0.4,0.6-0.3l8.5,1.7c0.3,0.1,0.5,0.3,0.4,0.6
		c-0.1,0.3-0.3,0.5-0.6,0.4c0,0,0,0,0,0L16.9,36.3L16.9,36.3z"/>
	<path class="st0" d="M17.8,39.1l5.7,1.6c0.3,0.1,0.4,0.3,0.4,0.6c0,0.2-0.2,0.3-0.4,0.4l-1,0.3c-1.6,0.5-3.4,0-4.6-1.3L17.3,40
		c-0.2-0.2-0.2-0.5,0.1-0.7C17.5,39.1,17.7,39.1,17.8,39.1z"/>
	<path class="st0" d="M21.6,35c-1.5-0.3-2.9-0.8-4.3-1.3c-0.5-0.2-1.1-1.1-1-1.5c0.8-3.5-0.1-6.8-1.1-10.1c-1-3-1.1-6.2-0.3-9.2
		c2-6.6,8.9-10.4,15.6-8.5c0.3,0.1,0.6,0.2,0.9,0.3c6.5,2.4,9.8,10.1,7.1,16.6c-1.2,2.8-3.2,4.9-5.4,6.8c-2.3,1.9-4.2,4.4-5.3,7.1
		c-0.2,0.5-1.2,0.9-1.8,0.8C24.5,35.9,23,35.5,21.6,35L21.6,35z"/>
	<path class="st0" d="M16.5,38.1c-0.3-0.2-0.3-0.5-0.2-0.7c0.1-0.2,0.3-0.3,0.4-0.3l8.5,1.8c0.3,0.1,0.5,0.3,0.4,0.6
		c-0.1,0.3-0.3,0.5-0.6,0.4c0,0,0,0,0,0L16.5,38.1L16.5,38.1z"/>
	<path class="st0" d="M16.9,36.3c-0.3-0.1-0.4-0.4-0.3-0.7c0.1-0.2,0.3-0.4,0.6-0.3l8.5,1.7c0.3,0.1,0.5,0.3,0.4,0.6
		c-0.1,0.3-0.3,0.5-0.6,0.4c0,0,0,0,0,0L16.9,36.3L16.9,36.3z"/>
	<path class="st0" d="M17.8,39.1l5.7,1.6c0.3,0.1,0.4,0.3,0.4,0.6c0,0.2-0.2,0.3-0.4,0.4l-1,0.3c-1.6,0.5-3.4,0-4.6-1.3L17.3,40
		c-0.2-0.2-0.2-0.5,0.1-0.7C17.5,39.1,17.7,39.1,17.8,39.1z"/>
</g>
</svg>
