<svg width="182" height="49" viewBox="0 0 182 49" fill="none" xmlns="http://www.w3.org/2000/svg">
<path d="M11.8632 18.6852C11.5585 18.6852 11.2663 18.8059 11.0509 19.0208C10.8355 19.2356 10.7145 19.527 10.7145 19.8308C10.7162 20.0613 10.7877 20.286 10.9195 20.4754C11.0514 20.6648 11.2375 20.8101 11.4535 20.8923C11.5822 20.945 11.7203 20.971 11.8594 20.9687C12.164 20.9687 12.4562 20.848 12.6716 20.6331C12.8871 20.4183 13.0081 20.127 13.0081 19.8231C13.0081 19.5193 12.8871 19.228 12.6716 19.0131C12.4562 18.7983 12.164 18.6776 11.8594 18.6776L11.8632 18.6852ZM11.8632 20.5945C11.811 20.6003 11.7584 20.6003 11.7062 20.5945C11.5564 20.5602 11.4205 20.4818 11.316 20.3694C11.2115 20.257 11.1434 20.1159 11.1204 19.9644C11.1185 19.9301 11.1185 19.8957 11.1204 19.8613C11.1204 19.7103 11.1653 19.5626 11.2494 19.437C11.3336 19.3115 11.4532 19.2136 11.5931 19.1558C11.7331 19.098 11.887 19.0828 12.0356 19.1123C12.1841 19.1418 12.3206 19.2145 12.4277 19.3213C12.5348 19.4281 12.6077 19.5642 12.6373 19.7123C12.6668 19.8605 12.6516 20.014 12.5937 20.1536C12.5357 20.2931 12.4376 20.4124 12.3116 20.4963C12.1857 20.5802 12.0377 20.625 11.8862 20.625L11.8632 20.5945Z" fill="white"/>
<path d="M62.0232 20.7052H60.9204C60.0519 19.8099 59.012 19.0978 57.8622 18.6111C56.7124 18.1243 55.4763 17.873 54.2272 17.8719H53.8443C47.7408 17.8719 44.8805 11.9801 43.6513 9.44843C43.5135 9.16587 43.3986 8.92531 43.3029 8.74966C40.5574 3.68261 37.5976 1.02497 34.496 0.856962C30.667 0.646948 27.9866 4.35465 27.6765 4.7785L27.4582 5.09542L27.1212 4.9045C25.3522 3.91171 18.5441 1.89558 12.3755 1.74666C8.48902 1.64357 4.77101 2.86164 2.67268 4.90832C2.10313 5.42201 1.64671 6.04799 1.33232 6.74668C1.01793 7.44536 0.852391 8.20154 0.846208 8.96732C0.846208 16.3903 5.31475 21.0068 7.23311 22.6449L6.6817 23.2864C4.67144 21.572 0 16.7416 0 8.96732C0.00958837 8.08934 0.19897 7.22257 0.556504 6.42019C0.914039 5.6178 1.43216 4.89673 2.07916 4.30119C4.33447 2.1056 8.29756 0.807328 12.4176 0.898971C18.3833 1.04407 24.9731 2.91891 27.217 3.99571C28.7218 1.98722 31.4558 -0.158741 34.5611 0.00926992C37.9728 0.196373 41.1701 3.00292 44.0649 8.34872C44.1644 8.53201 44.2869 8.78403 44.4478 9.08186C45.5965 11.4684 48.3036 17.0242 53.8787 17.0242H54.2617C55.7475 17.029 57.2139 17.3615 58.5558 17.9979C59.8977 18.6343 61.0817 19.5588 62.0232 20.7052V20.7052Z" fill="white"/>
<path d="M53.9332 24.7146V25.99C48.2164 19.5559 43.1084 14.3361 38.6437 11.6479L36.7062 12.6636C37.6099 18.5746 35.4962 23.7676 32.9958 27.609C32.8324 27.8635 32.6678 28.1079 32.5019 28.3421C31.328 30.029 30.0014 31.605 28.5388 33.0502L27.3633 33.0044L27.6581 32.7219C30.6563 29.8466 37.4529 22.1143 35.8217 12.4842L35.7719 12.1825L38.6667 10.6552L38.8696 10.7735C43.3152 13.4044 48.3351 18.46 53.9332 24.7146Z" fill="white"/>
<path d="M24.0588 31.4617C24.6178 35.8491 23.5648 39.404 21.2253 41.0078C20.5208 41.5014 19.6816 41.768 18.8206 41.7715C18.0462 41.7628 17.2869 41.5564 16.6151 41.172C13.2417 39.2857 11.4382 33.7413 11.7905 26.3259L9.6615 21.8812L10.8102 20.3195L10.9404 20.1362L11.0936 19.9338C11.1158 20.086 11.1837 20.228 11.2882 20.3411C11.3928 20.4542 11.5291 20.5332 11.6794 20.5677L11.5569 20.7357L11.4344 20.8961L10.6264 21.9805L12.25 25.3637L12.6329 26.1541V26.261C12.6329 26.303 12.6329 26.3374 12.6329 26.3755C12.1427 36.8686 15.8684 39.7897 17.0286 40.435C17.593 40.7784 18.2458 40.9494 18.9066 40.927C19.5673 40.9046 20.2069 40.6898 20.7466 40.309C22.3778 39.1978 23.8788 36.2538 23.182 31.3281L23.1436 31.0684L23.3657 30.9195C29.1706 26.9941 31.6748 18.1736 31.4566 12.6254C31.4604 12.558 31.4604 12.4904 31.4566 12.423C31.4605 12.3543 31.4605 12.2855 31.4566 12.2168C31.6075 12.2647 31.7699 12.2627 31.9196 12.2111C32.0693 12.1595 32.1984 12.0611 32.2874 11.9304C32.2874 12.0221 32.2875 12.1137 32.3104 12.2092C32.3334 12.3046 32.3104 12.3619 32.3104 12.4421C32.5976 18.2156 30.101 27.208 24.0588 31.4617Z" fill="white"/>
<path d="M12.5792 26.4558L11.8594 26.009L16.6342 18.3683L15.0643 17.2381L15.5621 16.5546L17.7715 18.1469L12.5792 26.4558Z" fill="white"/>
<path d="M24.6102 21.5491L17.3809 18.7769L17.0516 18.6509L17.3541 17.8643L17.4039 17.8834L23.6797 20.289L23.2968 14.2559L19.2993 11.3768L19.1231 11.2469L18.9317 11.1095C19.0762 11.0659 19.2046 10.9806 19.3006 10.8644C19.3967 10.7482 19.4562 10.6063 19.4716 10.4565L19.6515 10.5864L19.82 10.7086L24.1162 13.8015L24.6102 21.5491Z" fill="white"/>
<path d="M20.2565 15.6572C20.1457 15.6781 20.0408 15.7232 19.9495 15.7892C19.8581 15.8552 19.7826 15.9405 19.7281 16.0391V16.0391C19.6808 16.0976 19.6433 16.1634 19.6171 16.2338L19.4524 16.1231L19.3107 16.0314H19.2878L15.765 13.7174L15.0566 8.91386L11.7445 7.4705L11.3386 7.29103L11.6756 6.52734L12.0585 6.69918L15.8148 8.33728L16.5346 13.2134L19.843 15.3899L19.9196 15.4396L20.134 15.5808L20.2565 15.6572Z" fill="white"/>
<path d="M9.94864 4.11805C9.57318 4.11731 9.20395 4.21369 8.877 4.39776C8.55005 4.58184 8.27656 4.84732 8.08323 5.16829C7.88991 5.48926 7.78337 5.85473 7.77399 6.22903C7.76462 6.60333 7.8527 6.97366 8.02972 7.30385C8.20673 7.63404 8.46661 7.91281 8.78394 8.11294C9.10126 8.31306 9.46522 8.42769 9.84025 8.44565C10.2153 8.46361 10.5886 8.38427 10.9237 8.21539C11.2588 8.0465 11.5442 7.79384 11.7521 7.48208C11.9097 7.2512 12.0203 6.99174 12.0776 6.7184C12.1053 6.57879 12.1194 6.43686 12.1197 6.29456C12.1213 6.00927 12.0662 5.7265 11.9578 5.4625C11.8493 5.1985 11.6896 4.95848 11.4879 4.75622C11.2861 4.55396 11.0463 4.39346 10.7821 4.28394C10.518 4.17442 10.2347 4.11804 9.94864 4.11805V4.11805ZM9.94864 7.60045C9.68645 7.60121 9.4299 7.52436 9.21153 7.37965C8.99315 7.23494 8.82277 7.02887 8.72191 6.78752C8.62105 6.54617 8.59424 6.28042 8.64493 6.02388C8.69561 5.76735 8.82153 5.53158 9.00666 5.34643C9.19179 5.16128 9.42783 5.03506 9.68493 4.98378C9.94203 4.93249 10.2086 4.95843 10.4509 5.05831C10.6932 5.15819 10.9004 5.32753 11.0461 5.54488C11.1919 5.76222 11.2696 6.01781 11.2697 6.27928C11.2686 6.62871 11.1293 6.96359 10.8819 7.21103C10.6345 7.45848 10.299 7.59844 9.94864 7.60045V7.60045Z" fill="white"/>
<path d="M11.8632 18.8801C11.612 18.8811 11.3714 18.9813 11.1942 19.1588C11.0169 19.3363 10.9174 19.5766 10.9174 19.827C10.9162 19.9297 10.9331 20.0318 10.9672 20.1287C11.0305 20.3157 11.1509 20.4781 11.3117 20.5932C11.4724 20.7083 11.6653 20.7702 11.8632 20.7702C11.9927 20.7784 12.1226 20.7601 12.2447 20.7163C12.3668 20.6725 12.4786 20.6042 12.5733 20.5157C12.6679 20.4271 12.7433 20.3201 12.7949 20.2014C12.8464 20.0826 12.8731 19.9546 12.8731 19.8251C12.8731 19.6957 12.8464 19.5677 12.7949 19.4489C12.7433 19.3301 12.6679 19.2232 12.5733 19.1346C12.4786 19.046 12.3668 18.9778 12.2447 18.934C12.1226 18.8902 11.9927 18.8719 11.8632 18.8801V18.8801ZM11.8632 20.5755C11.811 20.5813 11.7584 20.5813 11.7062 20.5755C11.5559 20.5409 11.4195 20.4619 11.315 20.3488C11.2105 20.2357 11.1427 20.0938 11.1204 19.9416C11.1185 19.9085 11.1185 19.8754 11.1204 19.8423C11.1204 19.6913 11.1653 19.5436 11.2494 19.418C11.3336 19.2925 11.4532 19.1946 11.5931 19.1368C11.733 19.079 11.887 19.0638 12.0356 19.0933C12.1841 19.1228 12.3206 19.1955 12.4277 19.3023C12.5348 19.4091 12.6077 19.5452 12.6373 19.6933C12.6668 19.8415 12.6516 19.995 12.5937 20.1346C12.5357 20.2741 12.4376 20.3934 12.3116 20.4773C12.1857 20.5612 12.0376 20.606 11.8862 20.606L11.8632 20.5755Z" fill="white"/>
<path d="M7.76996 22.3433C7.4653 22.3433 7.17311 22.464 6.95768 22.6788C6.74225 22.8937 6.62124 23.1851 6.62124 23.4889C6.62021 23.6569 6.65819 23.8229 6.73225 23.9738C6.82507 24.1682 6.97093 24.3325 7.15311 24.448C7.33528 24.5635 7.54642 24.6254 7.76229 24.6268C8.06695 24.6268 8.35914 24.5061 8.57456 24.2912C8.78999 24.0764 8.91101 23.785 8.91101 23.4812C8.91101 23.1774 8.78999 22.886 8.57456 22.6712C8.35914 22.4564 8.06695 22.3357 7.76229 22.3357L7.76996 22.3433ZM7.76996 24.2335C7.71779 24.2393 7.66512 24.2393 7.61295 24.2335C7.46265 24.1989 7.3263 24.1199 7.22177 24.0068C7.11724 23.8937 7.04938 23.7518 7.02709 23.5996C7.02534 23.5665 7.02534 23.5334 7.02709 23.5003C7.02709 23.3493 7.072 23.2016 7.15615 23.076C7.24029 22.9505 7.3599 22.8526 7.49984 22.7948C7.63977 22.737 7.79374 22.7218 7.94229 22.7513C8.09084 22.7808 8.22731 22.8535 8.33441 22.9603C8.44151 23.0671 8.51445 23.2032 8.54399 23.3513C8.57354 23.4995 8.55839 23.653 8.50043 23.7926C8.44247 23.9321 8.34433 24.0514 8.21839 24.1353C8.09246 24.2192 7.94437 24.264 7.79291 24.264L7.76996 24.2335Z" fill="white"/>
<path d="M27.8649 32.6912C27.5603 32.6912 27.2681 32.8119 27.0527 33.0268C26.8372 33.2416 26.7162 33.5329 26.7162 33.8368C26.7152 34.0048 26.7532 34.1708 26.8272 34.3217C26.92 34.5161 27.0659 34.6804 27.2481 34.7959C27.4303 34.9114 27.6414 34.9733 27.8573 34.9747C28.1619 34.9747 28.4541 34.854 28.6695 34.6391C28.885 34.4243 29.006 34.1329 29.006 33.8291C29.006 33.5253 28.885 33.2339 28.6695 33.0191C28.4541 32.8043 28.1619 32.6836 27.8573 32.6836L27.8649 32.6912ZM27.8649 34.6004C27.8128 34.6063 27.7601 34.6063 27.7079 34.6004C27.5576 34.5659 27.4213 34.4869 27.3167 34.3738C27.2122 34.2607 27.1443 34.1188 27.1221 33.9666C27.1202 33.9335 27.1202 33.9004 27.1221 33.8673C27.1221 33.7163 27.167 33.5686 27.2511 33.443C27.3353 33.3174 27.4549 33.2196 27.5948 33.1617C27.7347 33.1039 27.8888 33.0888 28.0373 33.1183C28.1859 33.1478 28.3223 33.2205 28.4294 33.3273C28.5365 33.4341 28.6094 33.5702 28.639 33.7183C28.6685 33.8665 28.6534 34.02 28.5954 34.1596C28.5374 34.2991 28.4393 34.4184 28.3134 34.5023C28.1874 34.5862 28.0393 34.631 27.8879 34.631L27.8649 34.6004Z" fill="white"/>
<path d="M14.4784 15.1799C14.1738 15.1799 13.8816 15.3006 13.6662 15.5154C13.4508 15.7302 13.3297 16.0216 13.3297 16.3254C13.3315 16.556 13.403 16.7806 13.5348 16.97C13.6667 17.1594 13.8527 17.3047 14.0687 17.3869C14.1901 17.4371 14.3202 17.4631 14.4516 17.4633C14.7563 17.4633 15.0485 17.3426 15.2639 17.1278C15.4793 16.9129 15.6004 16.6216 15.6004 16.3178C15.6004 16.014 15.4793 15.7226 15.2639 15.5078C15.0485 15.2929 14.7563 15.1722 14.4516 15.1722L14.4784 15.1799ZM14.4784 17.0662C14.4263 17.072 14.3736 17.072 14.3215 17.0662C14.1712 17.0316 14.0348 16.9527 13.9303 16.8396C13.8258 16.7265 13.7579 16.5845 13.7356 16.4323C13.7336 16.3993 13.7336 16.3661 13.7356 16.333C13.7356 16.182 13.7805 16.0343 13.8647 15.9088C13.9488 15.7832 14.0684 15.6853 14.2084 15.6275C14.3483 15.5697 14.5023 15.5546 14.6508 15.584C14.7994 15.6135 14.9358 15.6862 15.0429 15.793C15.15 15.8998 15.223 16.0359 15.2525 16.1841C15.2821 16.3322 15.2669 16.4857 15.209 16.6253C15.151 16.7648 15.0528 16.8841 14.9269 16.968C14.8009 17.0519 14.6529 17.0967 14.5014 17.0967L14.4784 17.0662Z" fill="white"/>
<path d="M20.3944 15.2563C20.1774 15.2572 19.9652 15.3194 19.7822 15.4357C19.5993 15.5519 19.453 15.7174 19.3605 15.9131C19.3403 15.9567 19.3224 16.0013 19.3069 16.0467C19.2712 16.1591 19.2531 16.2763 19.2533 16.3942C19.2533 16.6207 19.3206 16.8422 19.4469 17.0306C19.5731 17.219 19.7525 17.3658 19.9624 17.4525C20.1723 17.5392 20.4033 17.5619 20.6261 17.5177C20.8489 17.4735 21.0536 17.3644 21.2142 17.2042C21.3749 17.044 21.4843 16.8399 21.5286 16.6177C21.5729 16.3955 21.5502 16.1651 21.4633 15.9558C21.3763 15.7465 21.2291 15.5676 21.0402 15.4417C20.8513 15.3158 20.6292 15.2487 20.402 15.2487L20.3944 15.2563ZM20.3944 17.1426C20.1912 17.1426 19.9965 17.0621 19.8529 16.9189C19.7092 16.7757 19.6285 16.5815 19.6285 16.3789C19.6279 16.2903 19.6435 16.2023 19.6745 16.1193V16.1193L19.7089 16.0429C19.7634 15.9444 19.839 15.859 19.9303 15.793C20.0216 15.727 20.1265 15.682 20.2373 15.6611C20.2832 15.6573 20.3293 15.6573 20.3752 15.6611H20.4862C20.6543 15.7106 20.8003 15.8162 20.8997 15.9601C20.9992 16.1041 21.0461 16.2777 21.0327 16.452C21.0192 16.6262 20.9462 16.7907 20.8259 16.9177C20.7055 17.0448 20.5451 17.1269 20.3714 17.1502L20.3944 17.1426Z" fill="white"/>
<path d="M18.7211 9.44849C18.4702 9.44849 18.2297 9.54786 18.0523 9.72473C17.8749 9.90161 17.7753 10.1415 17.7753 10.3916C17.7753 10.6418 17.8749 10.8817 18.0523 11.0585C18.2297 11.2354 18.4702 11.3348 18.7211 11.3348C18.8535 11.333 18.9841 11.3031 19.104 11.247C19.2375 11.1854 19.3548 11.0937 19.4465 10.979C19.5382 10.8643 19.6019 10.7299 19.6324 10.5864C19.6463 10.5224 19.6527 10.4571 19.6515 10.3916C19.6506 10.1444 19.5527 9.90738 19.3789 9.73115C19.205 9.55492 18.9689 9.45347 18.7211 9.44849V9.44849ZM18.9278 11.1095C18.8607 11.1295 18.7911 11.1398 18.7211 11.14C18.5689 11.1438 18.4189 11.1023 18.2905 11.0207C18.1621 10.9392 18.061 10.8213 18 10.6821C17.9391 10.5429 17.9212 10.3888 17.9486 10.2394C17.9759 10.0901 18.0473 9.9522 18.1536 9.84347C18.2599 9.73475 18.3963 9.6601 18.5453 9.62905C18.6944 9.598 18.8494 9.61197 18.9904 9.66917C19.1315 9.72637 19.2522 9.8242 19.3372 9.95017C19.4223 10.0761 19.4677 10.2245 19.4677 10.3764V10.4413C19.4552 10.5938 19.3971 10.739 19.3008 10.8582C19.2046 10.9773 19.0746 11.0649 18.9278 11.1095Z" fill="white"/>
<path d="M18.7211 9.24988C18.4164 9.24988 18.1243 9.37056 17.9088 9.58539C17.6934 9.80022 17.5724 10.0916 17.5724 10.3954C17.5724 10.6992 17.6934 10.9906 17.9088 11.2054C18.1243 11.4202 18.4164 11.5409 18.7211 11.5409C18.9683 11.5393 19.2084 11.4581 19.4057 11.3095C19.603 11.161 19.747 10.9528 19.8162 10.7162C19.847 10.6133 19.8625 10.5065 19.8622 10.3992C19.8632 10.0961 19.7437 9.80487 19.5298 9.58943C19.3159 9.374 19.0251 9.2519 18.7211 9.24988V9.24988ZM19.4678 10.4565C19.4523 10.6063 19.3929 10.7482 19.2968 10.8644C19.2008 10.9806 19.0724 11.0658 18.9278 11.1095C18.8607 11.1295 18.7911 11.1397 18.7211 11.14C18.5689 11.1438 18.419 11.1023 18.2905 11.0207C18.1621 10.9391 18.061 10.8212 18.0001 10.682C17.9392 10.5429 17.9213 10.3888 17.9486 10.2394C17.976 10.09 18.0473 9.95214 18.1536 9.84342C18.2599 9.7347 18.3963 9.66004 18.5454 9.62899C18.6944 9.59795 18.8494 9.61192 18.9904 9.66912C19.1315 9.72631 19.2522 9.82415 19.3373 9.95011C19.4223 10.0761 19.4677 10.2245 19.4678 10.3763V10.4565Z" fill="white"/>
<path d="M31.6595 10.552C31.4264 10.5512 31.2013 10.6362 31.0272 10.7908C30.8531 10.9453 30.7424 11.1585 30.7163 11.3895C30.6902 11.6205 30.7505 11.853 30.8857 12.0423C31.0209 12.2316 31.2215 12.3645 31.449 12.4154C31.5181 12.4308 31.5887 12.4384 31.6595 12.4383C31.9104 12.4383 32.1509 12.3389 32.3283 12.1621C32.5057 11.9852 32.6053 11.7453 32.6053 11.4952C32.6053 11.245 32.5057 11.0051 32.3283 10.8283C32.1509 10.6514 31.9104 10.552 31.6595 10.552ZM32.2684 11.919C32.1793 12.0496 32.0503 12.1481 31.9006 12.1997C31.7508 12.2513 31.5884 12.2533 31.4375 12.2054C31.2993 12.1667 31.1749 12.0901 31.0783 11.9844C30.9818 11.8786 30.9169 11.7479 30.8911 11.6072C30.8654 11.4665 30.8798 11.3213 30.9327 11.1884C30.9857 11.0554 31.075 10.94 31.1905 10.8551C31.306 10.7703 31.4431 10.7196 31.5861 10.7087C31.7292 10.6978 31.8724 10.7271 31.9995 10.7935C32.1266 10.8598 32.2325 10.9603 32.3051 11.0837C32.3776 11.2071 32.414 11.3483 32.41 11.4913C32.4095 11.6453 32.3599 11.795 32.2684 11.919V11.919Z" fill="white"/>
<path d="M31.6594 10.3573C31.3823 10.3705 31.1193 10.4833 30.9191 10.6749C30.7189 10.8665 30.595 11.1238 30.5703 11.3994C30.5455 11.675 30.6216 11.9502 30.7845 12.1741C30.9474 12.3981 31.1861 12.5557 31.4565 12.6178C31.524 12.6236 31.5919 12.6236 31.6594 12.6178C31.9641 12.6178 32.2563 12.4971 32.4717 12.2823C32.6871 12.0675 32.8081 11.7761 32.8081 11.4723C32.8002 11.1738 32.6757 10.8902 32.4611 10.682C32.2465 10.4737 31.9588 10.3572 31.6594 10.3573V10.3573ZM32.2683 11.9229C32.1792 12.0535 32.0502 12.1519 31.9005 12.2035C31.7507 12.2551 31.5883 12.2571 31.4374 12.2092C31.2992 12.1706 31.1748 12.094 31.0782 11.9882C30.9817 11.8825 30.9168 11.7518 30.891 11.611C30.8653 11.4703 30.8797 11.3252 30.9326 11.1922C30.9856 11.0593 31.0749 10.9438 31.1904 10.859C31.3059 10.7742 31.443 10.7234 31.586 10.7125C31.7291 10.7016 31.8723 10.731 31.9994 10.7973C32.1265 10.8636 32.2324 10.9642 32.305 11.0876C32.3776 11.211 32.4139 11.3522 32.41 11.4952C32.4086 11.6478 32.359 11.7961 32.2683 11.919V11.9229Z" fill="white"/>
<path d="M46.7077 32.8936H36.8632L34.1216 40.5305H32.59L40.8148 16.8562H42.7293L50.9541 40.5305H49.4225L46.7077 32.8936ZM37.3686 31.4121H46.1755L41.7759 18.6547L37.3686 31.4121Z" fill="white"/>
<path d="M65.5122 23.5805V48.2857H64.0227V38.1592C62.939 39.9844 60.9594 40.8932 58.371 40.8932C54.159 40.8932 51.7697 38.8695 51.7697 33.7719V30.2971C51.7697 25.2338 54.1743 23.2101 58.371 23.2101C61.0092 23.2101 63.008 24.1532 64.0878 26.009L64.3252 23.5805H65.5122ZM64.0227 34.4477V29.6556C63.6819 26.1465 61.7252 24.6267 58.5395 24.6267C54.8827 24.6267 53.2592 26.3145 53.2592 30.5338V33.5695C53.2592 37.7889 54.8827 39.4766 58.5395 39.4766C61.7214 39.4613 63.6819 37.9569 64.0227 34.4477V34.4477Z" fill="white"/>
<path d="M82.1955 23.5806V40.5229H81.0468L80.8438 37.9913C79.8253 39.9005 77.8993 40.8933 75.2917 40.8933C71.3669 40.8933 69.1307 38.6672 69.1307 33.5352V23.5806H70.6202V33.3519C70.6202 37.6057 72.1097 39.4958 75.4257 39.4958C78.5426 39.4958 80.369 37.9417 80.706 34.4669V23.5806H82.1955Z" fill="white"/>
<path d="M99.0165 23.5805V40.5228H97.8678L97.5998 38.06C96.5506 39.9501 94.5365 40.8932 91.8791 40.8932C87.6672 40.8932 85.2778 38.8351 85.2778 33.7719V30.2971C85.2778 25.2338 87.6825 23.2101 91.8791 23.2101C94.5595 23.2101 96.5506 24.1532 97.5998 26.0434L97.8678 23.5805H99.0165ZM97.527 34.4477V29.6556C97.1862 26.1465 95.2296 24.6267 92.0438 24.6267C88.387 24.6267 86.7635 26.3145 86.7635 30.5338V33.5351C86.7635 37.7354 88.387 39.4766 92.0438 39.4766C95.2258 39.4613 97.1862 37.9569 97.527 34.4477V34.4477Z" fill="white"/>
<path d="M116.512 30.2971V33.7719C116.512 38.8695 114.111 40.8933 109.88 40.8933C107.237 40.8933 105.243 39.9501 104.193 38.0944L103.922 40.5229H102.773V14.5347H104.262V25.9098C105.346 24.1228 107.326 23.2101 109.88 23.2101C114.099 23.2101 116.512 25.2339 116.512 30.2971ZM115.022 30.5339C115.022 26.3145 113.398 24.6268 109.746 24.6268C106.663 24.6268 104.703 26.0778 104.262 29.3845V34.7303C104.703 38.0371 106.663 39.4881 109.746 39.4881C113.398 39.4881 115.022 37.8004 115.022 33.581V30.5339Z" fill="white"/>
<path d="M118.916 34.1155V29.9916C118.916 25.7073 121.183 23.2101 125.854 23.2101C130.526 23.2101 132.793 25.7073 132.793 29.9916V34.1155C132.793 38.3654 130.522 40.8971 125.854 40.8971C121.187 40.8971 118.916 38.3616 118.916 34.1155ZM131.303 33.9131V30.1673C131.303 26.4519 129.676 24.6305 125.854 24.6305C122.033 24.6305 120.406 26.4519 120.406 30.1673V33.9131C120.406 37.6247 122.029 39.4804 125.854 39.4804C129.68 39.4804 131.303 37.6208 131.303 33.9093V33.9131Z" fill="white"/>
<path d="M148.798 23.5806V40.5229H147.649L147.447 37.9913C146.428 39.9005 144.502 40.8933 141.894 40.8933C137.97 40.8933 135.733 38.6672 135.733 33.5352V23.5806H137.223V33.3519C137.223 37.6057 138.712 39.4958 142.028 39.4958C145.145 39.4958 146.972 37.9417 147.309 34.4669V23.5806H148.798Z" fill="white"/>
<path d="M166.263 30.5682V40.5228H164.773V30.7706C164.773 26.5168 163.115 24.6267 159.592 24.6267C156.38 24.6267 154.519 26.1121 154.044 29.3845V40.5228H152.555V23.5805H153.673L153.91 26.1808C154.959 24.1876 156.973 23.2101 159.73 23.2101C163.877 23.2101 166.263 25.4362 166.263 30.5682Z" fill="white"/>
<path d="M168.767 35.2916V34.9861H170.256V35.261C170.256 37.8957 172.083 39.5147 175.705 39.5147C178.343 39.5147 180.541 38.3692 180.541 36.208C180.541 31.0111 169.307 34.0468 169.307 27.9373C169.307 25.0353 171.604 23.2139 175.433 23.2139C179.699 23.2139 181.897 25.3407 181.897 28.7162V29.0522H180.407V28.6475C180.407 26.1502 178.818 24.5961 175.502 24.5961C172.523 24.5961 170.762 25.8448 170.762 27.838C170.762 32.5614 182 29.6937 182 36.1049C182 39.278 179.121 40.897 175.636 40.897C171.152 40.8932 168.767 38.6976 168.767 35.2916Z" fill="white"/>
</svg>
