<svg xmlns="http://www.w3.org/2000/svg" viewBox="0 0 186.62 53.99"><defs><style>.cls-1{fill:#e31018;}.cls-2,.cls-4{fill:none;stroke-miterlimit:3.86;stroke-width:0.05px;}.cls-2{stroke:#e31018;}.cls-3,.cls-5{fill:#fff;}.cls-4{stroke:#fff;}.cls-5{fill-rule:evenodd;}</style></defs><g id="Calque_2" data-name="Calque 2"><g id="COMPATIBILITÉ_DOUBLE" data-name="COMPATIBILITÉ DOUBLE"><g id="LOGO_MARQUE" data-name="LOGO MARQUE"><g id="RED_SEA" data-name="RED SEA"><rect class="cls-1" x="0.03" y="0.03" width="41.29" height="53.94"/><rect class="cls-2" x="0.03" y="0.03" width="41.29" height="53.94"/><path class="cls-3" d="M4.38,4.69l6.7,0c2.56,0,5.48,0,7.43,1,3.89,2,9.49,8.3,7.87,18.65a28.45,28.45,0,0,1-2.93,7.05c-2.31,4.26-1.83,10.47.71,12.18a8.29,8.29,0,0,0,6.58,1.72,7.63,7.63,0,0,0,4.51-3.65A9.18,9.18,0,0,0,36.48,37s-.25-3.28-1.95-3.65c-1.82-.12-2.92,2-3.91,3.28-.35.6-1.94.36-1.21-1.22,1.48-3.05,3.54-4,5-4a3.62,3.62,0,0,1,2.92,1.47c1.1,1.46,1.22,4,1.22,5.36A12.34,12.34,0,0,1,36,45.05s-3.17,4.5-8,4.24A13,13,0,0,1,19.41,46c-3-2.68-6.81-10.84-5.94-17.66.38-2.07,1.84-6.69,2.82-8.15A8.77,8.77,0,0,0,18,16.65a5.48,5.48,0,0,0-.13-3.42,6.67,6.67,0,0,0-1.09-2.31l-.85-1h-.49c.36,4.25-1.35,9.86-5.14,10.1v4.86l.73.74.12.36H4.83l.24-.49.73-.61,0-12.17V6.41A6.53,6.53,0,0,1,4.38,4.69"/><path class="cls-4" d="M4.38,4.69l6.7,0c2.56,0,5.48,0,7.43,1,3.89,2,9.49,8.3,7.87,18.65a28.45,28.45,0,0,1-2.93,7.05c-2.31,4.26-1.83,10.47.71,12.18a8.29,8.29,0,0,0,6.58,1.72,7.63,7.63,0,0,0,4.51-3.65A9.18,9.18,0,0,0,36.48,37s-.25-3.28-1.95-3.65c-1.82-.12-2.92,2-3.91,3.28-.35.6-1.94.36-1.21-1.22,1.48-3.05,3.54-4,5-4a3.62,3.62,0,0,1,2.92,1.47c1.1,1.46,1.22,4,1.22,5.36A12.34,12.34,0,0,1,36,45.05s-3.17,4.5-8,4.24A13,13,0,0,1,19.41,46c-3-2.68-6.81-10.84-5.94-17.66.38-2.07,1.84-6.69,2.82-8.15A8.77,8.77,0,0,0,18,16.65a5.48,5.48,0,0,0-.13-3.42,6.67,6.67,0,0,0-1.09-2.31l-.85-1h-.49c.36,4.25-1.35,9.86-5.14,10.1v4.86l.73.74.12.36H4.83l.24-.49.73-.61,0-12.17V6.41A6.53,6.53,0,0,1,4.38,4.69Z"/><path class="cls-1" d="M10.35,10.44a1.09,1.09,0,0,1,1.2,1,1.11,1.11,0,0,1-1.21,1c-.73,0-1.21-.37-1.21-1s.48-1,1.22-1"/><path class="cls-5" d="M57.56,28h.5A3.77,3.77,0,0,0,61.6,25.4q1.15-2.59,1.17-8,0-5.66-1.21-8.17a4.1,4.1,0,0,0-4-2.53Zm0,16.88a13.76,13.76,0,0,0,.77,5.58A2.93,2.93,0,0,0,61,52.11V54l-14.85,0V52.08a2.81,2.81,0,0,0,2.56-1.75,14.38,14.38,0,0,0,.77-5.48l0-31.86a14,14,0,0,0-.73-5.46,2.87,2.87,0,0,0-2.55-1.76V3.92l14.24,0C64,4,66.64,5.11,68.45,7.4s2.71,5.62,2.71,10a19.85,19.85,0,0,1-1.38,7.69,8.81,8.81,0,0,1-3.8,4.6L71.07,47a15.07,15.07,0,0,0,1.52,3.89,2.66,2.66,0,0,0,1.73,1.22V54l-9.54,0L58.39,31h-.83Z"/><path class="cls-5" d="M91.22,42.19a24.43,24.43,0,0,1-3.32,8.74Q85.82,54,83,54c-2.6,0-4.72-1.75-6.34-5.23s-2.43-8-2.43-13.61A42.8,42.8,0,0,1,74.7,29,29.94,29.94,0,0,1,76,23.65a14.86,14.86,0,0,1,3.13-5.47,5.53,5.53,0,0,1,4-2c2.43,0,4.33,1.56,5.7,4.63s2.1,7.44,2.16,13l-10,0a27.64,27.64,0,0,0,1.46,9.29c.89,2.29,2,3.43,3.49,3.44a2.8,2.8,0,0,0,2.21-1.4A13.63,13.63,0,0,0,90,41.07ZM81,31h4.2a56.84,56.84,0,0,0-.55-8.78c-.35-2-.85-3-1.53-3s-1.17,1-1.54,3.06A52.65,52.65,0,0,0,81,31"/><path class="cls-5" d="M104.59,24.75a5.06,5.06,0,0,0-.84-1.76,1.48,1.48,0,0,0-1.17-.59c-.78,0-1.36,1-1.73,3.13a66.24,66.24,0,0,0-.56,10.15,64.76,64.76,0,0,0,.53,10.24c.35,2,1,2.95,1.83,2.95a1.39,1.39,0,0,0,1.07-.59,4.67,4.67,0,0,0,.83-1.69Zm0-13.95a10.07,10.07,0,0,0-.6-3.92A3.6,3.6,0,0,0,102,5V3.3h9.29l-.06,39.95a7.52,7.52,0,0,0,.51,3.06,4.15,4.15,0,0,0,1.61,1.91V50l-6.56,4h-2.09V50.49a7.32,7.32,0,0,1-1.85,2.64,3.66,3.66,0,0,1-2.44.82c-2.19,0-3.92-1.67-5.22-5S93.21,41,93.23,35.29s.65-10.2,1.93-13.67,2.92-5.2,5-5.2a3.6,3.6,0,0,1,2.48,1,8.38,8.38,0,0,1,2,3Z"/><path class="cls-5" d="M125.65,53.88l0-18.21h.95a24.08,24.08,0,0,0,3,10.82c1.72,2.87,3.71,4.31,6,4.31a4.06,4.06,0,0,0,3.52-2,8.63,8.63,0,0,0,1.36-5.05q0-4.76-6.32-10.13l-.05,0c-.27-.22-.65-.55-1.17-1a18.48,18.48,0,0,1-5.83-7.47,19.38,19.38,0,0,1-1-3.69,25,25,0,0,1-.34-4.13A22,22,0,0,1,128.53,6c1.81-3,4.12-4.51,6.93-4.49a8.33,8.33,0,0,1,4.76,1.76A17.51,17.51,0,0,0,142.91,5a1,1,0,0,0,.9-.74,11.27,11.27,0,0,0,.34-2.72h1l0,16.08h-.87a20.68,20.68,0,0,0-2.82-9.33q-2.28-3.59-5.35-3.59A3.55,3.55,0,0,0,133,6.42a7.8,7.8,0,0,0-1.17,4.48c0,2.7,1.62,5.36,4.89,8l.41.32a51.81,51.81,0,0,1,4.9,4.43,12.18,12.18,0,0,1,2.09,3,22,22,0,0,1,1.62,5,29.78,29.78,0,0,1,.53,5.74q0,7.34-2.77,12T136.34,54a9.8,9.8,0,0,1-5.19-1.7,20.94,20.94,0,0,0-2.92-1.7c-.43,0-.78.29-1.06.87a6.59,6.59,0,0,0-.5,2.45Z"/><path class="cls-5" d="M165.58,42.19a24.63,24.63,0,0,1-3.31,8.74c-1.41,2-3,3-4.88,3-2.61,0-4.72-1.75-6.35-5.23s-2.43-8-2.42-13.61a41.47,41.47,0,0,1,.44-6.17,30.49,30.49,0,0,1,1.28-5.32,15.37,15.37,0,0,1,3.12-5.47,5.59,5.59,0,0,1,4-2c2.43,0,4.33,1.56,5.71,4.64s2.08,7.43,2.15,13h-10a28,28,0,0,0,1.46,9.3c.9,2.29,2,3.44,3.49,3.44a2.81,2.81,0,0,0,2.21-1.4,14.65,14.65,0,0,0,1.87-4.13ZM155.35,31h4.2a56.75,56.75,0,0,0-.55-8.78c-.35-2-.85-3-1.52-3s-1.17,1-1.54,3.06a51.51,51.51,0,0,0-.59,8.73"/><path class="cls-5" d="M177.52,45.56v-12A8.76,8.76,0,0,0,175,37.33a14.25,14.25,0,0,0-.95,5.2,9.61,9.61,0,0,0,.51,3.41c.35.87.79,1.32,1.33,1.32a1.22,1.22,0,0,0,.88-.4,4.47,4.47,0,0,0,.77-1.3m.21,3.08a18.43,18.43,0,0,1-3.07,4.06A4.16,4.16,0,0,1,171.88,54c-1.24,0-2.26-.8-3.06-2.38a13.27,13.27,0,0,1-1.22-6,14.56,14.56,0,0,1,2.5-8.23,21.72,21.72,0,0,1,7.44-6.48l0-7.52A7.82,7.82,0,0,0,177,20.1a1.68,1.68,0,0,0-1.49-1.17,1.74,1.74,0,0,0-1.46.75,3.14,3.14,0,0,0-.56,1.92,11.23,11.23,0,0,0,.43,2.25,12,12,0,0,1,.43,2.83,7.74,7.74,0,0,1-.78,3.73,2.25,2.25,0,0,1-2,1.42,2.82,2.82,0,0,1-2.51-1.68,9,9,0,0,1-.94-4.46,10.27,10.27,0,0,1,2.29-6.91,7.55,7.55,0,0,1,6-2.65,6.42,6.42,0,0,1,5.8,2.93c1.26,1.94,1.87,5,1.87,9l0,17.05a7.94,7.94,0,0,0,.2,2.1c.12.46.3.69.55.69a.87.87,0,0,0,.49-.23,7,7,0,0,0,.73-.65l.53,1.25a15.48,15.48,0,0,1-2.27,4.23A3.31,3.31,0,0,1,181.87,54a3,3,0,0,1-2.38-1.37,11.29,11.29,0,0,1-1.76-4"/></g></g></g></g></svg>