<svg xmlns="http://www.w3.org/2000/svg" viewBox="0 0 129.46 129.85"><defs><style>.cls-1{fill:#fff;}</style></defs><g id="Calque_2" data-name="Calque 2"><g id="REPERES"><path class="cls-1" d="M0,66.41C.34,70,.32,74.61,1.62,79,4.21,87.7,9.89,93.5,18.68,95.76c9.05,2.33,16.84-.32,23.39-6.92,2.44-2.45,2.83-4.33.5-7.48-8.87-12-7.07-27.5,3.86-37.27a27.83,27.83,0,0,1,36.83,0c11,9.8,12.57,25.57,3.36,37.72-2.15,2.83-1.6,4.45.42,6.6,6.52,6.93,14.44,9.75,23.7,7.4s15-8.49,17.41-17.69a54.54,54.54,0,0,0,1.29-14.54C129,28.31,99.56-.38,64.31,0A65.2,65.2,0,0,0,0,66.41Zm78.39,29c-.87,9.73,5.7,22,13.43,26.06a4.26,4.26,0,0,0,3.45.51c6.23-1.85,19.21-13.91,22-20.78C102.9,108.71,90,107,78.4,95.41Zm-66.15,6.85c5.37,8.82,12.7,14.93,21.35,19.6,1.19.65,2.29.29,3.46-.27,7.76-3.7,14.61-16.46,13.6-26.35C39.53,107.2,26.56,108.13,12.25,102.26Zm68.4,25.37c-8.58-8.29-13.28-18.38-16.3-29.47-2.06,11.51-7.39,21-15.22,29.28C57.18,130.55,70.31,130.69,80.65,127.63Z"/><path class="cls-1" d="M0,66.41A65.2,65.2,0,0,1,64.31,0C99.56-.38,129,28.31,129.44,63.55a54.54,54.54,0,0,1-1.29,14.54c-2.38,9.2-8.18,15.35-17.41,17.69s-17.18-.47-23.7-7.4c-2-2.15-2.57-3.77-.42-6.6,9.21-12.15,7.64-27.92-3.36-37.72a27.83,27.83,0,0,0-36.83,0C35.5,53.86,33.7,69.39,42.57,81.36c2.33,3.15,1.94,5-.5,7.48-6.55,6.6-14.34,9.25-23.39,6.92C9.89,93.5,4.21,87.7,1.62,79,.32,74.61.34,70,0,66.41Z"/><path class="cls-1" d="M78.4,95.41C90,107,102.9,108.71,117.25,101.2c-2.76,6.87-15.74,18.93-22,20.78a4.26,4.26,0,0,1-3.45-.51C84.1,117.43,77.53,105.14,78.4,95.41Z"/><path class="cls-1" d="M12.25,102.26c14.31,5.87,27.28,4.94,38.41-7,1,9.89-5.84,22.65-13.6,26.35-1.17.56-2.27.92-3.46.27C25,117.19,17.62,111.08,12.25,102.26Z"/><path class="cls-1" d="M80.65,127.63c-10.34,3.06-23.47,2.92-31.52-.19,7.83-8.28,13.16-17.77,15.22-29.28C67.37,109.25,72.07,119.34,80.65,127.63Z"/></g></g></svg>