<?xml version="1.0" encoding="utf-8"?>
<!-- Generator: Adobe Illustrator 26.0.3, SVG Export Plug-In . SVG Version: 6.00 Build 0)  -->
<svg version="1.1" id="Calque_1" xmlns="http://www.w3.org/2000/svg" xmlns:xlink="http://www.w3.org/1999/xlink" x="0px" y="0px"
	 viewBox="0 0 50 42" style="enable-background:new 0 0 50 42;" xml:space="preserve">
<style type="text/css">
	.st0{fill:#2677ED;}
</style>
<g id="Calque_13">
	<path class="st0" d="M14.8,11.7L8.8,5.8L8.5,5.4C7.9,5,7.9,4.2,8.3,3.6c0,0,0.1-0.1,0.1-0.1C9,3,9.9,3,10.4,3.6L20.7,14
		c4.9,4.9,9.8,9.7,14.7,14.6c2.6,2.6,5.2,5.2,7.7,7.8c0.6,0.4,0.7,1.1,0.4,1.7c-0.3,0.6-1.1,0.9-1.7,0.6c-0.2-0.1-0.3-0.2-0.4-0.4
		c-2.1-2.1-4.2-4.2-6.3-6.3c-0.2-0.3-0.7-0.4-1-0.2c-2.4,1.2-5,1.9-7.7,2c-3.6,0-7.1-0.9-10.2-2.8c-4.1-2.3-7.7-5.4-10.6-9.1
		c-0.6-0.5-0.6-1.3-0.1-1.9c0-0.1,0.1-0.1,0.1-0.1c2.4-3,5.3-5.7,8.5-7.9l0.4-0.3C14.6,11.9,14.7,11.8,14.8,11.7z M30.9,27.9
		l-0.5,0.3c-2.6,1.7-6,1.8-8.7,0.2c-4.1-2.3-5.5-7.6-3.2-11.7c0.1-0.1,0.1-0.2,0.2-0.3c0.1-0.2,0.3-0.4,0-0.7c-0.7-0.7-1.3-1.4-2-2
		c-3.2,2-6.1,4.5-8.5,7.3c2.8,3.3,6.2,6.1,10,8.2c3.2,1.7,6.6,2.6,10.3,1.8c1.4-0.3,2.7-0.8,4.2-1.2L30.9,27.9z M20.9,18
		c-1.5,2.4-1,5.6,1.2,7.4c1.9,1.7,4.6,1.9,6.8,0.5l-2.6-2.6c-1.1,0.6-2,0.6-2.6,0c-0.6-0.6-0.8-1.5-0.1-2.8L20.9,18z"/>
	<path class="st0" d="M23.8,9.2L23.8,9.2c0.1-0.7,0.8-1.3,1.5-1.1l1.8,0.3c0.7,0.1,1.2,0.8,1.1,1.5l0,0c-0.1,0.7-0.8,1.2-1.5,1.1
		L25,10.7C24.2,10.6,23.7,9.9,23.8,9.2z"/>
	<path class="st0" d="M32.1,11.1L32.1,11.1c0.3-0.7,1.2-0.9,1.8-0.6l1.6,0.8c0.7,0.3,0.9,1.2,0.6,1.8l0,0c-0.3,0.7-1.2,0.9-1.8,0.6
		L32.7,13C32,12.6,31.8,11.8,32.1,11.1z"/>
	<path class="st0" d="M39.8,15L39.8,15c0.6-0.5,1.4-0.5,1.9,0.1l1.2,1.3c0.5,0.5,0.5,1.4-0.1,1.9l0,0c-0.5,0.5-1.4,0.5-1.9-0.1
		l-1.2-1.3C39.2,16.4,39.2,15.5,39.8,15z"/>
	<path class="st0" d="M44.8,22.3L44.8,22.3c0.5,0.6,0.5,1.4-0.1,1.9l-1.3,1.2c-0.5,0.5-1.4,0.5-1.9-0.1l0,0C41,24.8,41,24,41.5,23.5
		l1.3-1.2C43.4,21.8,44.3,21.8,44.8,22.3z"/>
</g>
</svg>
