<svg xmlns="http://www.w3.org/2000/svg" viewBox="0 0 186.98 64.01"><defs><style>.cls-1{fill:#fff;}</style></defs><g id="Calque_2" data-name="Calque 2"><g id="COMPATIBILITÉ_DOUBLE" data-name="COMPATIBILITÉ DOUBLE"><path class="cls-1" d="M109.19,44.94H98.81a.6.6,0,0,1-.58-.31L89.77,31,85.1,23.42a2.55,2.55,0,0,0-.46-.59V44.92H73.9V4.28H84.23a.51.51,0,0,1,.51.3q5.6,9,11.18,18.1c.76,1.21,1.51,2.43,2.26,3.65l.26.38V4.3h10.75Z"/><path class="cls-1" d="M36.66,4.29H48.07v.45q0,12.21,0,24.43a7.9,7.9,0,0,0,1.07,4.27,5.51,5.51,0,0,0,4.25,2.63,7,7,0,0,0,3.81-.5,5.43,5.43,0,0,0,3.16-4,13.09,13.09,0,0,0,.29-2.79c0-8,0-16,0-24V4.31H72.09v.31q0,12.09,0,24.18a19.18,19.18,0,0,1-2,8.9,13.89,13.89,0,0,1-6.65,6.52,16.69,16.69,0,0,1-4.56,1.2,27.67,27.67,0,0,1-5,.19,33.13,33.13,0,0,1-7-.88,12.26,12.26,0,0,1-6.3-4.13,13.35,13.35,0,0,1-2.8-5,26.76,26.76,0,0,1-1.12-7.44q0-11.7,0-23.39Z"/><path class="cls-1" d="M179.29,44.93H148.17V4.29h30.56v8.65h-19.1V19.4h17.71v8.26H159.63v8.06h19.66Z"/><path class="cls-1" d="M131.66,12.93H113.2V4.3h32.3v.37c0,2.45,0,4.91,0,7.36a.94.94,0,0,1-.26.67c-2,2.31-4.05,4.65-6.07,7l-11.28,13-2.83,3.24-.24.32h21.41v8.71h-35c0-.11,0-.21,0-.31q0-3.9,0-7.81a.77.77,0,0,1,.18-.48L124.25,21.5l7.22-8.31Z"/><path class="cls-1" d="M11.63,14.31H0V4.3H34.68v10H23.06V44.93H11.63Z"/><path class="cls-1" d="M112.81,61.39c.41,0,.79,0,1.16,0a.28.28,0,0,1,.21.12A2.62,2.62,0,0,0,117,62.87,3.2,3.2,0,0,0,120,59.28l-.64.59a4.28,4.28,0,0,1-5.22.19,4.5,4.5,0,0,1-1.93-4.33,4.43,4.43,0,0,1,7.67-2.7,1,1,0,0,0,.14.13V51.85h1.1v.39c0,2.4,0,4.79,0,7.19a4.56,4.56,0,0,1-1.56,3.71,3.71,3.71,0,0,1-2,.82,4.63,4.63,0,0,1-3.58-.87A3,3,0,0,1,112.81,61.39Zm3.76-8.73a3,3,0,0,0-1.68.55,3.7,3.7,0,0,0-1,4.92,3.18,3.18,0,0,0,4.21,1.32,3.65,3.65,0,0,0,1.64-4.55A3.39,3.39,0,0,0,116.57,52.66Z"/><path class="cls-1" d="M178.15,59.19a3.89,3.89,0,0,1-2.54,1.6,4.47,4.47,0,0,1-5.19-3.71,4.88,4.88,0,0,1,.84-3.72,4.44,4.44,0,0,1,6.92-.17V51.85h1.1v.36c0,2.41,0,4.82,0,7.23A4.67,4.67,0,0,1,177.89,63a3.68,3.68,0,0,1-2.15,1,4.76,4.76,0,0,1-3.33-.65A3,3,0,0,1,171,61.39c.4,0,.78,0,1.16,0a.27.27,0,0,1,.2.12,2.58,2.58,0,0,0,2.71,1.36A3.21,3.21,0,0,0,178.15,59.19Zm0-2.85.08,0a9.53,9.53,0,0,0-.43-1.61,3.18,3.18,0,0,0-3.77-1.94,3.55,3.55,0,0,0-2.36,4.48,3.39,3.39,0,0,0,3,2.54A3.48,3.48,0,0,0,178.18,56.34Z"/><path class="cls-1" d="M18.49,53.11V51.85h1.09V63.36H18.5v-4a4.41,4.41,0,0,1-4.36,1.36A4.16,4.16,0,0,1,11.49,59a4.87,4.87,0,0,1,.78-6.31A4.49,4.49,0,0,1,18.49,53.11Zm-3.29-.49a8.07,8.07,0,0,0-1,.22,3.68,3.68,0,0,0-1.77,5.43,3.21,3.21,0,0,0,4.49,1,3.76,3.76,0,0,0,1.46-4.15A3.56,3.56,0,0,0,15.2,52.62Z"/><path class="cls-1" d="M143.49,56.58h-7.85a3.26,3.26,0,0,0,3.69,3.13A3.2,3.2,0,0,0,141.82,58a.38.38,0,0,1,.4-.23h1a4.39,4.39,0,0,1-5.3,2.91,4.62,4.62,0,0,1-3.39-5.58,4.55,4.55,0,0,1,9,1.44Zm-1.26-1a3.24,3.24,0,0,0-3.53-2.93,3.2,3.2,0,0,0-3,2.93Z"/><path class="cls-1" d="M153.14,57.81a4.48,4.48,0,0,1-5.57,2.85,4.7,4.7,0,0,1-3.12-5.58,4.55,4.55,0,0,1,9,1.48h-7.85a3.21,3.21,0,0,0,2.64,3.11A3.25,3.25,0,0,0,151.77,58a.37.37,0,0,1,.25-.17C152.38,57.8,152.74,57.81,153.14,57.81Zm-1-2.22a3.24,3.24,0,0,0-3.57-2.93,3.2,3.2,0,0,0-3,2.93Z"/><path class="cls-1" d="M37.94,53.11V51.85H39v8.69H38V59.28a4.4,4.4,0,0,1-4.45,1.46A4.07,4.07,0,0,1,31,59a4.91,4.91,0,0,1,.49-6.18A4.59,4.59,0,0,1,37.94,53.11Zm0,2.88a3.37,3.37,0,0,0-5.07-2.79,3.75,3.75,0,0,0-1.34,4.44,3.36,3.36,0,0,0,3.42,2.14A3.59,3.59,0,0,0,37.92,56Z"/><path class="cls-1" d="M10.41,60.56c-.38,0-.72,0-1.06,0-.1,0-.22-.16-.27-.28-.41-1-.8-2.06-1.19-3.1a.33.33,0,0,0-.36-.26c-1.54,0-3.08,0-4.61,0-.22,0-.3.08-.37.27-.39,1-.79,2.09-1.19,3.14a2.29,2.29,0,0,1-.1.23H.05c.26-.69.52-1.36.77-2q1.8-4.62,3.58-9.25c.1-.24.2-.37.49-.34s.79-.1,1,.07.29.63.42,1l4,10.28A2.92,2.92,0,0,1,10.41,60.56Zm-7.34-4.7H7.39L5.26,50.19H5.17Z"/><path class="cls-1" d="M62.92,49h6v1.14H64.1v4h4.82v1.17H64.1v4.2h4.81v1.08h-6Z"/><path class="cls-1" d="M96.73,54.09h4.79v1.18h-4.8v4.18h4.8v1.09h-6V49h6v1.13H96.73Z"/><path class="cls-1" d="M84.86,60.83a4.48,4.48,0,0,1-4.51-4.62,4.54,4.54,0,1,1,4.51,4.62Zm3.34-4.62a3.32,3.32,0,0,0-4-3.43,3.51,3.51,0,1,0,4,3.43Z"/><path class="cls-1" d="M79.15,57.81a4.2,4.2,0,0,1-4.63,3,4.64,4.64,0,0,1-.07-9.19,4.3,4.3,0,0,1,4.7,2.93c-.37,0-.73,0-1.09,0-.1,0-.21-.14-.28-.25a3.12,3.12,0,0,0-2.68-1.64,3.23,3.23,0,0,0-3.29,2.48,3.63,3.63,0,0,0,1.57,4.17,3.24,3.24,0,0,0,4.39-1.2.48.48,0,0,1,.52-.31C78.58,57.83,78.86,57.81,79.15,57.81Z"/><path class="cls-1" d="M56.46,54.57a9.28,9.28,0,0,1-1.06,0,.53.53,0,0,1-.32-.24,3.16,3.16,0,0,0-3.86-1.49A3.26,3.26,0,0,0,49,55.74a3.52,3.52,0,0,0,1.74,3.61A3.21,3.21,0,0,0,55,58.16a.54.54,0,0,1,.61-.35c.26,0,.53,0,.79,0-.21,1.72-2.23,3.09-4.47,3a4.55,4.55,0,0,1-4.21-4.34,4.65,4.65,0,0,1,3.64-4.8A4.31,4.31,0,0,1,56.46,54.57Z"/><path class="cls-1" d="M133.05,60.54H132v-.39c0-1.67,0-3.33,0-5a3.86,3.86,0,0,0-.1-.75c-.31-1.28-1.21-1.77-2.65-1.67a2.33,2.33,0,0,0-2.29,2.33c-.06,1.68,0,3.37-.06,5v.42h-1.08v-8.7h1.08v.78a9.77,9.77,0,0,1,1.48-.81,4,4,0,0,1,2.7,0,2.87,2.87,0,0,1,2,2.75c.08,1.94.05,3.89.06,5.84A.37.37,0,0,1,133.05,60.54Z"/><path class="cls-1" d="M104.63,60.55h-1.07v-8.7h1.06v.91l.33-.3c1.28-1.26,4.39-1.2,5.42.64a4.42,4.42,0,0,1,.49,2.16c0,1.71,0,3.43,0,5.15a.7.7,0,0,1,0,.12h-1.08v-.4c0-1.66,0-3.33,0-5a2.51,2.51,0,0,0-.63-1.77,2.41,2.41,0,0,0-2.13-.62,2.3,2.3,0,0,0-2.27,2.37c-.07,1.65,0,3.3-.07,5Z"/><path class="cls-1" d="M162.84,60.55h-1.06v-8.7h1.06v.78a9,9,0,0,1,1.48-.82,3.84,3.84,0,0,1,3.54.49A2.82,2.82,0,0,1,169,54.58c.06,2,0,3.92,0,5.87a.19.19,0,0,1,0,.09H168v-.42c0-1.47,0-2.93,0-4.4a7.13,7.13,0,0,0-.07-1,2,2,0,0,0-2-1.94A2.45,2.45,0,0,0,163,54.42a7.24,7.24,0,0,0-.18,1.74c0,1.33,0,2.66,0,4Z"/><path class="cls-1" d="M28.66,60.55H27.59v-.7h-.11a3.71,3.71,0,0,1-3.67.88,2.76,2.76,0,0,1-2.34-2.79c-.12-1.5-.1-3-.13-4.53,0-.51,0-1,0-1.56h1.14v.36c0,1.49,0,3,0,4.47A7,7,0,0,0,22.62,58a2,2,0,0,0,2.15,1.75,2.51,2.51,0,0,0,2.8-2.71c0-1.63,0-3.25,0-4.88v-.35h1.08Z"/><path class="cls-1" d="M42.69,52.91v7.62H41.56v-7.6H39.89V51.84h1.65V49h1.13v2.86h1.66v1.1Z"/><path class="cls-1" d="M157.82,51.62v1.23l-.47.08a1.74,1.74,0,0,0-1.45,1.82c0,1.79,0,3.58,0,5.37v.42h-1.14V51.85h1.05v.74A2.71,2.71,0,0,1,157.82,51.62Z"/><path class="cls-1" d="M122.84,51.84h1.1v8.69h-1.1Z"/><path class="cls-1" d="M159.92,60.54h-1.1V51.85h1.1Z"/><path class="cls-1" d="M45.29,51.84h1.1v8.69h-1.1Z"/><path class="cls-1" d="M183.45,7a3.51,3.51,0,0,1-3.53-3.54A3.57,3.57,0,0,1,183.37,0a3.52,3.52,0,1,1,.08,7Zm0-6.6a3.17,3.17,0,0,0-3.16,3.11,3.15,3.15,0,0,0,3.13,3.06,3.11,3.11,0,0,0,3.12-3A3.11,3.11,0,0,0,183.48.43Z"/><path class="cls-1" d="M45.28,50.76V49h1.11v1.73Z"/><path class="cls-1" d="M122.84,49h1.1v1.74h-1.1Z"/><path class="cls-1" d="M158.82,50.77V49h1.1v1.74Z"/><path class="cls-1" d="M182.7,5.42h-.63v-4c.8,0,1.57,0,2.34.12a.9.9,0,0,1,.81.89,1,1,0,0,1-.67,1.14l-.24.1.84,1.7c-.57.16-.66.12-.9-.35s-.33-.65-.47-1a.44.44,0,0,0-.53-.32,5,5,0,0,1-.55,0Zm0-3.58v1.5c.47,0,.89,0,1.31-.1a.57.57,0,0,0,.57-.6.61.61,0,0,0-.53-.69C183.62,1.88,183.18,1.87,182.71,1.84Z"/></g></g></svg>