<svg id="Calque_1" data-name="Calque 1" xmlns="http://www.w3.org/2000/svg" viewBox="0 0 50 50"><defs><style>.cls-1{fill:#2677ed;}</style></defs><path class="cls-1" d="M47.4,0H1.93C.93,0,.1.45.07,1.47c-.08,3,0,6.08,0,9.18H50v-8C50,.45,49.56,0,47.4,0ZM5.29,7.12A1.83,1.83,0,0,1,3.58,5.31a1.87,1.87,0,0,1,1.8-1.74A1.86,1.86,0,0,1,7.13,5.34,1.82,1.82,0,0,1,5.29,7.12Zm17.63,0H12.87c-1.29,0-2.09-.69-2.1-1.75s.77-1.8,2-1.81c3.39,0,6.78,0,10.17,0a1.83,1.83,0,0,1,2,1.75A1.84,1.84,0,0,1,22.92,7.13Z"/><path class="cls-1" d="M.07,14.33c0,.29-.06.49-.06.67V47.91C0,49.46.64,50,2.34,50H47.48c2.08,0,2.53-.46,2.53-2.58V14.33ZM19.34,41C16,41,12.57,41,9.17,41a1.75,1.75,0,0,1-2-1.72,1.77,1.77,0,0,1,2-1.74c1.68,0,3.35,0,5,0s3.42,0,5.13,0c1.28,0,2,.63,2,1.67S20.65,41,19.34,41Zm0-7.12c-1.71,0-3.42,0-5.13,0s-3.35,0-5,0c-1.24,0-2-.66-2-1.67a1.78,1.78,0,0,1,2-1.84c3.42,0,6.85,0,10.27,0a1.77,1.77,0,1,1-.07,3.51Zm-.14-7.11H9.31c-1.3,0-2.1-.68-2.12-1.73S8,23.22,9.32,23.21q5,0,9.94,0c1.3,0,2.09.68,2.11,1.73S20.58,26.77,19.24,26.78ZM42.82,38.92c0,1.47-.62,2.09-2.08,2.1q-6.8,0-13.57,0C25.64,41,25,40.38,25,38.85q0-6.68,0-13.35c0-1.66.62-2.29,2.26-2.29q6.67,0,13.35,0c1.57,0,2.19.64,2.19,2.24,0,2.21,0,4.41,0,6.63S42.84,36.64,42.82,38.92Z"/></svg>