<?xml version="1.0" encoding="utf-8"?>
<!-- Generator: Adobe Illustrator 26.0.3, SVG Export Plug-In . SVG Version: 6.00 Build 0)  -->
<svg version="1.1" id="Calque_1" xmlns="http://www.w3.org/2000/svg" xmlns:xlink="http://www.w3.org/1999/xlink" x="0px" y="0px"
	 viewBox="0 0 50 50" style="enable-background:new 0 0 50 50;" xml:space="preserve">
<style type="text/css">
	.st0{display:none;fill:#FFFFFF;}
	.st1{fill:#2677ED;}
</style>
<path class="st0" d="M38.6,35.5H10.9c-0.6,0-1-0.5-1-1V17.3c0-0.6,0.5-1,1-1h27.7c0.6,0,1,0.5,1,1v17.2
	C39.6,35.1,39.1,35.5,38.6,35.5z"/>
<path class="st1" d="M40.9,3H8.6c-0.7,0-1.3,0.3-1.3,1c-0.1,2.1,0,4.3,0,6.5h35.5V4.9C42.8,3.3,42.5,3,40.9,3z M11,8.1
	c-0.7,0-1.2-0.6-1.2-1.3c0-0.7,0.6-1.2,1.3-1.2c0.7,0,1.2,0.6,1.2,1.3C12.3,7.5,11.7,8.1,11,8.1z M23.5,8.1h-7.2
	c-0.9,0-1.5-0.5-1.5-1.2s0.5-1.3,1.4-1.3c2.4,0,4.8,0,7.2,0c0.7-0.1,1.4,0.5,1.4,1.2c0,0,0,0,0,0.1c0,0.7-0.6,1.3-1.3,1.3
	C23.6,8.1,23.6,8.1,23.5,8.1L23.5,8.1z"/>
<path class="st1" d="M7.2,13.2c0,0.2,0,0.3,0,0.5v23.4c0,1.1,0.4,1.5,1.7,1.5H41c1.5,0,1.8-0.3,1.8-1.8V13.2H7.2z M21,32.2
	c-2.4,0-4.8,0-7.2,0c-0.7,0.1-1.3-0.4-1.4-1.1c0-0.1,0-0.1,0-0.2c0-0.7,0.6-1.3,1.3-1.2c0.1,0,0.1,0,0.2,0c1.2,0,2.4,0,3.6,0
	c1.2,0,2.4,0,3.7,0c0.9,0,1.4,0.4,1.4,1.2C22.4,31.7,21.9,32.2,21,32.2z M21,27.1c-1.2,0-2.4,0-3.7,0s-2.4,0-3.6,0
	c-0.9,0-1.4-0.5-1.4-1.2c0-0.7,0.5-1.3,1.2-1.3c0.1,0,0.1,0,0.2,0c2.4,0,4.9,0,7.3,0c0.7-0.1,1.3,0.4,1.4,1.1
	c0.1,0.7-0.4,1.3-1.1,1.4C21.2,27.2,21.1,27.2,21,27.1L21,27.1z M20.9,22.1h-7c-0.9,0-1.5-0.5-1.5-1.2s0.6-1.3,1.5-1.3
	c2.4,0,4.7,0,7.1,0c0.9,0,1.5,0.5,1.5,1.2C22.4,21.5,21.8,22.1,20.9,22.1L20.9,22.1z M37.7,30.7c0,1-0.4,1.5-1.5,1.5
	c-3.2,0-6.4,0-9.7,0c-1.1,0-1.5-0.5-1.5-1.5c0-3.2,0-6.3,0-9.5c0-1.2,0.4-1.6,1.6-1.6c3.2,0,6.3,0,9.5,0c1.1,0,1.6,0.5,1.6,1.6
	c0,1.6,0,3.1,0,4.7S37.7,29.1,37.7,30.7z"/>
</svg>
